<svg width="154" height="154" viewBox="0 0 154 154" fill="none" xmlns="http://www.w3.org/2000/svg">
<g clip-path="url(#clip0_383_82)">
<path d="M68.6758 37.5635C68.6758 27.7824 68.6411 18.036 68.6758 8.25494C68.6758 4.61305 71.0691 1.49142 74.4335 0.416199C77.8673 -0.693711 81.5438 0.520253 83.6943 3.39908C84.9083 5.02926 85.3592 6.90223 85.3592 8.94863C85.3245 28.0946 85.3592 47.2058 85.3592 66.3518C85.3592 67.9126 86.1569 68.7103 87.7524 68.7103C106.933 68.7103 126.114 68.7103 145.329 68.7103C150.358 68.7103 154.07 72.3176 154.07 77.0694C154.07 81.4743 150.532 85.1856 146.127 85.359C144.219 85.4284 142.311 85.3937 140.404 85.3937C122.715 85.3937 105.025 85.3937 87.3362 85.3937C85.1164 85.3937 85.3592 85.1162 85.3592 87.3013C85.3592 106.655 85.3592 126.009 85.3592 145.363C85.3592 149.595 82.9312 152.786 79.0119 153.792C74.0173 155.041 69.0227 151.399 68.7452 146.231C68.7105 145.641 68.7452 145.086 68.7452 144.496C68.7452 125.42 68.7452 106.343 68.7452 87.2667C68.7452 85.0815 68.988 85.359 66.8029 85.359C47.5182 85.359 28.1988 85.359 8.91412 85.359C4.54385 85.359 1.35286 82.9657 0.347006 78.977C-0.866958 74.0518 2.70556 69.0919 7.76953 68.745C8.39385 68.7103 9.05286 68.7103 9.67719 68.7103C28.7538 68.7103 47.8303 68.7103 66.9069 68.7103C68.988 68.7103 68.7799 68.9531 68.7799 66.9067C68.6758 57.091 68.6758 47.3099 68.6758 37.5635Z" fill="white"/>
</g>
<defs>
<clipPath id="clip0_383_82">
<rect width="154" height="154" fill="white"/>
</clipPath>
</defs>
</svg>
