<svg width="293" height="263" viewBox="0 0 293 263" fill="none" xmlns="http://www.w3.org/2000/svg">
<g clip-path="url(#clip0_383_67)">
<path d="M146.523 0.0153782C182.938 0.0153782 219.352 -0.0158403 255.766 0.0309874C273.723 0.0544013 288.11 11.5038 292.031 28.9003C292.664 31.7255 292.945 34.6835 292.945 37.579C293.008 83.3453 293.031 129.112 292.977 174.87C292.953 193.109 280.706 207.798 262.749 211.193C259.898 211.731 256.922 211.786 254.008 211.794C237.317 211.848 220.617 211.887 203.925 211.77C200.129 211.747 197.302 212.933 194.669 215.727C180.852 230.431 166.871 244.987 152.96 259.597C151.397 261.236 149.827 262.75 147.351 262.953C144.446 263.203 142.337 261.977 140.415 259.94C132.394 251.433 124.309 242.973 116.241 234.505C110.125 228.082 103.915 221.737 97.901 215.22C95.5812 212.707 92.9412 211.762 89.6059 211.778C72.4221 211.848 55.2383 211.747 38.0622 211.833C27.9394 211.88 19.0585 208.805 11.6538 201.897C4.31943 195.068 0.492123 186.53 0.140636 176.548C-0.0858786 170.226 0.070338 163.889 0.070338 157.559C0.070338 117.545 0.203122 77.523 4.05266e-05 37.5088C-0.0780678 22.7112 8.49823 7.60147 24.6823 2.17726C28.8455 0.780231 33.4538 0.132447 37.867 0.109034C69.8836 -0.062668 101.908 0.0153782 133.925 0.0153782C138.119 0.0153782 142.321 0.0153782 146.516 0.0153782H146.523ZM146.547 14.6256C110.812 14.6256 75.0856 14.6256 39.351 14.6256C38.1794 14.6256 37.0078 14.61 35.8361 14.6646C23.9871 15.1876 14.7859 24.717 14.7157 36.541C14.7 39.9516 14.7157 43.3544 14.7157 46.765C14.7157 89.2222 14.7313 131.679 14.6922 174.129C14.6922 179.693 16.0904 184.712 19.613 189.051C24.3933 194.928 30.7279 197.254 38.1794 197.23C55.168 197.176 72.1565 197.324 89.1373 197.16C97.0575 197.082 103.447 199.743 108.875 205.55C120.654 218.154 132.706 230.517 144.579 243.036C145.977 244.511 146.703 244.924 148.359 243.168C160.263 230.54 172.416 218.147 184.242 205.456C189.608 199.697 195.927 197.105 203.714 197.168C220.312 197.3 236.91 197.207 253.501 197.199C254.868 197.199 256.234 197.176 257.594 197.074C269.536 196.169 278.284 187.037 278.3 175.135C278.355 129.174 278.363 83.2126 278.245 37.2512C278.238 34.1216 277.605 30.7578 276.347 27.9169C272.34 18.9026 265.045 14.6256 255.203 14.6178C218.985 14.6178 182.766 14.6178 146.547 14.6178V14.6256Z" fill="#9E9E9E"/>
<path d="M95.9559 157.357C96.7916 152.159 97.7758 146.009 98.7756 139.867C99.6192 134.684 100.447 129.494 101.353 124.32C101.634 122.728 101.205 121.604 100.033 120.456C92.2301 112.816 84.4193 105.183 76.7568 97.4016C70.7737 91.3296 71.7423 81.847 78.8189 77.1408C80.5451 75.9935 82.7009 75.2443 84.7629 74.9009C94.9561 73.1838 105.173 71.6151 115.397 70.1244C117.818 69.7732 119.248 68.8445 120.373 66.5187C124.895 57.1454 129.613 47.8657 134.424 38.6406C138.548 30.7423 148.203 28.6975 155.029 34.3247C156.763 35.7529 158.13 37.8367 159.185 39.8581C163.855 48.8334 168.409 57.8634 172.869 66.948C173.783 68.8055 174.892 69.7342 176.946 70.0386C187.272 71.5605 197.567 73.2229 207.885 74.7916C213.478 75.6423 217.524 78.4754 219.359 83.8918C221.203 89.3238 219.687 94.0378 215.68 98.0181C208.205 105.44 200.769 112.894 193.209 120.222C191.748 121.635 191.436 123.001 191.748 124.866C193.459 134.934 195.091 145.018 196.755 155.093C198.036 162.851 194.482 169.462 187.866 171.421C184.179 172.513 180.602 172.248 177.095 170.414C167.675 165.505 158.177 160.752 148.773 155.819C147.093 154.937 145.875 154.961 144.211 155.827C134.893 160.713 125.52 165.505 116.123 170.234C110.008 173.309 104.251 172.552 99.9082 168.314C97.0963 165.567 95.8387 162.203 95.9481 157.349L95.9559 157.357ZM89.012 88.8945C89.8244 89.7765 90.2618 90.2838 90.7304 90.7442C97.518 97.4718 104.22 104.277 111.14 110.872C115.397 114.931 117.069 119.598 116.038 125.35C115.092 130.618 114.264 135.902 113.405 141.178C112.609 146.048 111.843 150.926 110.992 156.272C112.304 155.663 113.171 155.296 114.007 154.867C122.255 150.66 130.534 146.532 138.72 142.208C143.993 139.422 149.062 139.429 154.334 142.208C162.52 146.516 170.807 150.66 179.048 154.867C179.883 155.296 180.75 155.655 181.898 156.186C181.781 154.883 181.758 153.923 181.602 152.986C180.141 144.058 178.798 135.113 177.134 126.224C175.978 120.035 177.423 115.032 182.086 110.662C188.772 104.395 195.177 97.8308 201.691 91.3842C202.402 90.6818 203.066 89.9326 203.988 88.9492C193.459 87.3024 183.468 85.562 173.416 84.2274C167.331 83.4157 163.215 80.5436 160.559 75.0335C156.591 66.7997 152.358 58.6907 148.226 50.5348C147.757 49.6139 147.234 48.732 146.547 47.491C145.891 48.6305 145.391 49.4188 144.969 50.2539C141.321 57.4575 137.267 64.4895 134.166 71.9195C130.675 80.2939 124.84 84.1103 115.889 84.8596C107.071 85.601 98.346 87.4351 89.0198 88.8789L89.012 88.8945Z" fill="#9E9E9E"/>
</g>
<defs>
<clipPath id="clip0_383_67">
<rect width="293" height="263" fill="white"/>
</clipPath>
</defs>
</svg>
