<svg width="355" height="355" viewBox="0 0 355 355" fill="none" xmlns="http://www.w3.org/2000/svg">
<g clip-path="url(#clip0_383_30)">
<path d="M0.0673609 240.899C0.0673609 207.888 0.134961 174.884 -0.000238789 141.88C-0.0272787 135.823 2.14267 131.503 6.96929 127.798C60.8666 86.4854 114.656 45.0444 168.479 3.64399C174.806 -1.22347 180.207 -1.21671 186.568 3.68455C240.662 45.2946 294.735 86.9249 348.862 128.481C353.066 131.712 355 135.667 354.993 140.92C354.952 207.496 354.973 274.079 354.952 340.655C354.952 349.937 350.018 354.919 340.797 354.926C308.018 354.96 275.232 354.838 242.453 355.007C232.732 355.054 228.014 347.976 228.102 340.418C228.385 315.635 228.284 290.851 228.189 266.068C228.102 242.711 212.303 222.686 189.691 216.974C160.765 209.673 131.42 229.474 127.398 259.064C127.02 261.842 126.844 264.668 126.837 267.474C126.797 291.804 126.817 316.142 126.81 340.472C126.81 349.923 121.916 354.919 112.506 354.933C79.835 354.96 47.1709 354.96 14.4999 354.933C4.86694 354.926 0.0673609 350.025 0.060601 340.269C0.040321 307.15 0.060601 274.031 0.053841 240.906L0.0673609 240.899ZM329.623 237.505C329.623 207.989 329.596 178.467 329.677 148.951C329.677 146.565 328.947 145.077 327.061 143.631C278.193 106.118 229.379 68.5367 180.525 31.0032C176.847 28.1773 178.22 28.1638 174.454 31.0572C125.593 68.5908 76.7795 106.172 27.9184 143.692C26.1744 145.03 25.3564 146.389 25.3632 148.701C25.4375 207.854 25.4173 267.001 25.424 326.154C25.424 329.568 25.4375 329.574 28.8784 329.574C51.8623 329.574 74.8462 329.574 97.8233 329.574C101.44 329.574 101.46 329.568 101.46 325.917C101.46 306.765 101.339 287.606 101.541 268.461C101.602 262.525 101.9 256.448 103.211 250.695C109.741 222.152 126.945 202.581 154.844 193.826C182.607 185.112 207.943 191.136 229.426 210.842C245.995 226.04 253.62 245.421 253.58 267.873C253.546 287.025 253.566 306.177 253.58 325.336C253.58 330.305 253.316 329.568 257.643 329.574C280.397 329.602 303.158 329.595 325.912 329.574C330.116 329.574 329.609 330.081 329.609 325.728C329.623 296.32 329.616 266.913 329.616 237.512L329.623 237.505Z" fill="#9E9E9E"/>
</g>
<defs>
<clipPath id="clip0_383_30">
<rect width="355" height="355" fill="white"/>
</clipPath>
</defs>
</svg>
