<svg width="368" height="367" viewBox="0 0 368 367" fill="none" xmlns="http://www.w3.org/2000/svg">
<g clip-path="url(#clip0_383_45)">
<path d="M183.997 68.2351C120.048 68.2351 68.5576 119.796 68.4323 183.972C68.3134 247.016 120.392 298.74 183.991 298.74C247.715 298.74 299.436 247.235 299.568 183.653C299.693 120.059 247.809 68.2351 183.997 68.2351Z" fill="#FC5230"/>
<path d="M175.344 44.6749C175.407 50.3039 179.314 54.0127 184.623 53.7125C189.25 53.4498 192.574 49.7848 192.643 44.6562C192.725 38.7333 192.662 32.8167 192.662 26.8938C192.662 20.9709 192.731 15.048 192.643 9.13138C192.562 3.81516 188.855 0 183.984 0C179.113 0 175.438 3.84018 175.344 9.15014C175.269 13.303 175.325 17.4622 175.325 21.6151C175.325 29.3017 175.263 36.9883 175.35 44.6749H175.344Z" fill="#FC5230"/>
<path d="M53.8317 182.546C53.431 178.093 49.7809 174.935 44.7721 174.872C38.8367 174.803 32.9013 174.853 26.9597 174.853C21.1245 174.853 15.2955 174.816 9.46033 174.866C3.91313 174.916 -0.012492 178.556 2.98708e-05 183.516C0.0125518 188.482 3.92565 192.078 9.49789 192.14C14.2875 192.197 19.0772 192.153 23.873 192.153C30.854 192.153 37.8287 192.222 44.8097 192.128C50.5823 192.047 54.3263 187.975 53.838 182.546H53.8317Z" fill="#FC5230"/>
<path d="M358.972 174.885C353.036 174.76 347.101 174.86 341.159 174.86C335.118 174.86 329.076 174.785 323.034 174.878C317.812 174.96 314.181 178.506 314.112 183.347C314.05 188.231 317.587 192.04 322.733 192.097C334.917 192.228 347.107 192.184 359.291 192.109C362.509 192.09 365.114 190.633 366.773 187.781C370.191 181.921 366.066 175.022 358.959 174.878L358.972 174.885Z" fill="#FC5230"/>
<path d="M189.344 315.108C186.639 312.994 183.621 312.65 180.528 313.988C177.01 315.508 175.376 318.41 175.338 322.156C175.282 328.079 175.319 333.996 175.326 339.919C175.326 346.048 175.225 352.177 175.357 358.3C175.463 363.229 179.164 366.881 183.815 366.994C188.549 367.106 192.562 363.385 192.612 358.331C192.737 346.179 192.681 334.027 192.631 321.875C192.618 319.148 191.529 316.815 189.338 315.101L189.344 315.108Z" fill="#FC5230"/>
<path d="M79.7896 275.311C71.1119 283.848 62.4593 292.417 53.9757 301.142C52.4918 302.668 51.8532 305.019 51.2334 306.208C51.6404 310.861 53.2619 313.632 56.6616 315.064C60.1991 316.552 63.4673 315.821 66.1532 313.169C74.8184 304.613 83.4585 296.038 92.0047 287.369C95.4608 283.861 95.3794 278.645 92.1112 275.305C88.7678 271.884 83.3896 271.784 79.7896 275.317V275.311Z" fill="#FC5230"/>
<path d="M288.686 275.761C284.761 271.871 279.42 271.708 275.908 275.261C272.402 278.807 272.658 284.042 276.596 288.007C281.655 293.105 286.758 298.152 291.842 303.224C295.229 306.602 298.56 310.048 302.041 313.331C304.796 315.927 308.083 316.527 311.576 314.939C314.82 313.469 316.347 310.761 316.667 307.327C316.566 304.675 315.558 302.499 313.686 300.647C305.34 292.367 297.045 284.03 288.693 275.755L288.686 275.761Z" fill="#FC5230"/>
<path d="M288.142 91.7516C296.838 83.2269 305.472 74.6459 313.968 65.9273C315.458 64.395 316.116 62.0621 316.779 60.8237C316.366 56.2393 314.801 53.4436 311.407 51.9801C307.882 50.4603 304.602 51.1357 301.903 53.7938C293.238 62.3436 284.604 70.9308 276.046 79.5868C272.589 83.083 272.602 88.2804 275.826 91.6515C279.138 95.1102 284.542 95.2853 288.148 91.7578L288.142 91.7516Z" fill="#FC5230"/>
<path d="M79.8394 91.7453C83.3644 95.204 88.5735 95.1227 91.9356 91.8642C95.3729 88.5306 95.4918 83.1831 91.9356 79.5806C83.3831 70.9183 74.7869 62.2998 66.0403 53.8376C64.5064 52.3553 62.1585 51.7174 60.9627 51.0982C56.2983 51.4985 53.5247 53.1121 52.0846 56.502C50.582 60.0294 51.3145 63.288 53.9754 65.9711C62.5467 74.6084 71.1492 83.2269 79.8394 91.7453Z" fill="#FC5230"/>
</g>
<defs>
<clipPath id="clip0_383_45">
<rect width="368" height="367" fill="white"/>
</clipPath>
</defs>
</svg>
