<svg width="193" height="328" viewBox="0 0 193 328" fill="none" xmlns="http://www.w3.org/2000/svg">
<g clip-path="url(#clip0_383_72)">
<path d="M86.4556 305.323C86.4556 301.524 86.3152 297.709 86.5103 293.918C86.6351 291.414 85.9093 289.94 83.6383 288.559C67.179 278.558 51.75 267.154 37.9364 253.69C23.6702 239.781 12.1276 224.023 5.57982 204.974C-0.148528 188.327 -1.31137 171.29 1.38892 153.956C5.11937 130.016 14.7733 108.314 26.7372 87.5092C41.5576 61.7354 59.4216 38.1458 78.5733 15.4845C81.656 11.8337 84.7699 8.21415 87.8838 4.58678C93.0347 -1.41983 99.7619 -1.56804 104.944 4.37616C126.437 29.0189 146.689 54.5899 163.492 82.7195C174.574 101.262 183.892 120.608 189.129 141.686C194.108 161.718 194.685 181.735 188.481 201.682C183.9 216.41 176.275 229.421 166.426 241.208C155.102 254.766 141.921 266.288 127.491 276.405C121.271 280.766 114.941 284.979 108.565 289.113C107.043 290.104 106.536 291.133 106.552 292.873C106.622 301.259 106.684 309.645 106.536 318.023C106.411 325.207 100.371 329.482 93.4093 327.532C89.3822 326.401 86.7054 323.288 86.5649 319.068C86.4088 314.489 86.5259 309.91 86.5259 305.323C86.5025 305.323 86.4712 305.323 86.4478 305.323H86.4556ZM106.591 266.553C108.963 264.93 110.875 263.651 112.748 262.333C127.615 251.833 141.585 240.319 152.948 225.958C170.679 203.546 176.58 178.357 170.531 150.407C166.598 132.231 159.035 115.514 149.959 99.421C135.287 73.4132 117.041 49.9718 97.967 27.1233C96.5934 25.4851 95.9378 26.039 94.9155 27.3105C90.6231 32.615 86.2059 37.8182 81.9604 43.1617C66.2269 62.9367 51.3207 83.2578 39.5675 105.74C33.285 117.761 27.7908 130.086 24.2243 143.223C20.1894 158.099 18.7847 173.115 21.922 188.334C25.3793 205.122 33.8782 219.265 45.1554 231.91C56.854 245.038 70.6363 255.694 85.0665 265.586C85.4021 265.82 85.8859 265.843 86.4634 266.007C86.4634 264.696 86.4634 263.628 86.4634 262.559C86.4634 234.578 86.4634 206.588 86.4634 178.607C86.4634 172.468 86.3932 166.321 86.5181 160.181C86.6351 154.448 90.7402 150.586 96.4763 150.555C102.205 150.532 106.232 154.339 106.552 160.103C106.614 161.172 106.598 162.249 106.598 163.317C106.598 196.471 106.598 229.624 106.598 262.77V266.553H106.591Z" fill="#568A35"/>
</g>
<defs>
<clipPath id="clip0_383_72">
<rect width="193" height="328" fill="white"/>
</clipPath>
</defs>
</svg>
