<svg width="339" height="338" viewBox="0 0 339 338" fill="none" xmlns="http://www.w3.org/2000/svg">
<g clip-path="url(#clip0_383_25)">
<path d="M338.929 232.313C338.929 266.246 338.936 300.179 338.922 334.111C338.922 338.508 339.445 337.979 334.928 337.979C299.401 337.993 263.867 337.993 228.34 337.979C224.105 337.979 224.572 338.487 224.572 334.231C224.558 305.818 224.65 277.404 224.536 248.99C224.438 223.922 207.922 202.657 183.721 196.115C151.73 187.462 119.427 208.903 115.022 241.749C114.619 244.763 114.456 247.826 114.456 250.867C114.414 278.695 114.435 306.523 114.428 334.344C114.428 337.958 114.421 337.972 110.886 337.972C75.1189 337.972 39.3588 337.972 3.59157 337.972C-0.325221 337.972 0.0707001 338.353 0.0636301 334.33C0.0565601 266.239 0.0707001 198.141 0 130.042C0 127.551 0.735281 126.012 2.74316 124.516C57.253 83.7942 111.713 43.0015 166.202 2.25833C170.182 -0.719957 168.669 -0.811705 172.876 2.3289C227.273 43.0157 281.634 83.7377 336.059 124.382C338.159 125.949 339.007 127.502 339 130.162C338.901 164.215 338.936 198.261 338.936 232.313H338.929Z" fill="#0066B3"/>
</g>
<defs>
<clipPath id="clip0_383_25">
<rect width="339" height="338" fill="white"/>
</clipPath>
</defs>
</svg>
