<svg width="200" height="199" viewBox="0 0 200 199" fill="none" xmlns="http://www.w3.org/2000/svg">
<g clip-path="url(#clip0_383_16)">
<path d="M200 46.7804C198.928 47.5575 197.88 48.1188 197.073 48.9267C151.735 94.1837 106.422 139.459 61.1033 184.728C56.7458 189.083 52.3699 193.412 48.0371 197.791C47.2297 198.612 46.4223 198.994 45.2266 198.994C30.8229 198.951 16.4192 198.938 2.00933 199.006C0.314416 199.012 -0.00607697 198.426 8.63566e-05 196.885C0.0617196 182.49 0.0740463 168.101 8.63566e-05 153.712C-0.00607697 152.078 0.838299 151.196 1.82443 150.215C50.4654 101.622 99.1064 53.0281 147.741 4.43448C148.937 3.23799 150.225 2.11551 151.31 0.820336C152.339 -0.406993 152.974 -0.154126 153.991 0.875843C163.809 10.7623 173.677 20.6056 183.538 30.4489C188.826 35.7221 194.139 40.9645 199.994 46.7743L200 46.7804ZM28.6103 182.336C31.6919 182.336 34.7736 182.255 37.8552 182.366C39.5132 182.428 40.6965 181.953 41.8861 180.744C51.6858 170.839 61.5594 161.002 71.4207 151.153C98.0586 124.546 124.697 97.9397 151.378 71.3702C152.512 70.2415 152.358 69.6679 151.328 68.6565C144.475 61.9031 137.677 55.088 130.86 48.2915C129.656 47.0909 128.458 47.0826 127.267 48.2668C106.656 68.8168 86.0463 89.3669 65.4423 109.917C49.5779 125.743 33.7197 141.568 17.8984 157.431C17.2574 158.079 16.5918 159.072 16.5733 159.911C16.4685 166.911 16.5363 173.917 16.4932 180.917C16.487 182.058 16.9123 182.348 17.9785 182.336C21.5224 182.286 25.0663 182.317 28.6103 182.317V182.336ZM140.82 34.7477C148.432 42.383 155.982 49.932 163.495 57.518C164.296 58.3259 164.74 57.9867 165.356 57.3638C168.604 54.0889 171.852 50.8078 175.156 47.5945C176.031 46.7434 176.006 46.2438 175.143 45.3927C167.926 38.257 160.752 31.0718 153.584 23.8867C152.962 23.2576 152.549 22.9678 151.772 23.7695C148.173 27.4515 144.505 31.0657 140.82 34.7477Z" fill="white"/>
</g>
<defs>
<clipPath id="clip0_383_16">
<rect width="200" height="199" fill="white"/>
</clipPath>
</defs>
</svg>
