<svg width="115" height="115" viewBox="0 0 115 115" fill="none" xmlns="http://www.w3.org/2000/svg">
<g clip-path="url(#clip0_383_78)">
<path d="M0.000148632 106.042C0.033081 104.363 0.955189 102.387 2.63474 100.74C6.25731 97.1506 9.84694 93.5281 13.4366 89.9384C23.8103 79.5647 34.184 69.191 44.5577 58.8173C46.0726 57.3024 46.0397 57.6976 44.5906 56.2156C30.6932 42.3182 16.7957 28.4207 2.8982 14.5232C0.56 12.185 -0.559702 9.51748 0.263608 6.22424C1.71263 0.461071 8.49671 -1.87713 13.206 1.7125C13.7988 2.17356 14.3587 2.73341 14.8856 3.26033C28.6514 17.0261 42.45 30.8248 56.2487 44.5905C57.6319 45.9737 57.3026 46.0395 58.7186 44.6234C72.6491 30.693 86.5795 16.7626 100.51 2.79927C102.815 0.494003 105.45 -0.559834 108.71 0.230544C114.638 1.67957 116.943 8.62831 113.123 13.3706C112.662 13.9304 112.168 14.4244 111.641 14.9184C97.9082 28.6512 84.1425 42.384 70.4097 56.1498C68.8948 57.6647 68.9277 57.3024 70.3767 58.7514C84.2742 72.6489 98.1717 86.5464 112.069 100.444C114.407 102.782 115.527 105.45 114.671 108.776C113.189 114.572 106.306 116.91 101.597 113.156C101.037 112.728 100.543 112.201 100.049 111.707C86.2501 97.941 72.4844 84.1423 58.7186 70.3766C57.3355 68.9934 57.6648 68.9276 56.2487 70.3437C42.3183 84.2741 28.355 98.2045 14.4575 112.168C12.1193 114.506 9.41882 115.56 6.12558 114.704C2.47008 113.749 -0.0327838 110.488 0.000148632 106.042Z" fill="white"/>
</g>
<defs>
<clipPath id="clip0_383_78">
<rect width="115" height="115" fill="white"/>
</clipPath>
</defs>
</svg>
