<svg width="545" height="962" viewBox="0 0 545 962" fill="none" xmlns="http://www.w3.org/2000/svg">
<g clip-path="url(#clip0_383_90)">
<path d="M347.251 865.565C305.104 876.671 263.282 876.896 220.608 867.555C220.608 880.402 220.721 892.685 220.52 904.968C220.47 907.898 221.998 907.66 223.94 907.96C233.359 909.463 242.715 911.191 251.508 915.222C257.032 917.752 262.28 920.619 266.388 925.176C274.053 933.678 272.563 945.736 263.106 952.234C254.965 957.831 245.533 959.383 236.064 960.473C219.017 962.438 201.945 962.513 184.886 960.535C177.033 959.621 169.355 958.031 162.516 953.711C150.091 945.861 148.851 931.349 159.91 921.62C168.628 913.97 179.375 911.015 190.485 909.125C194.956 908.361 200.743 909.362 203.599 906.883C206.279 904.554 204.275 898.632 204.338 894.3C204.45 885.535 204.162 876.771 204.463 868.006C204.588 864.538 203.724 862.96 200.279 861.921C164.845 851.203 133.82 832.522 106.603 807.806C76.0162 780.01 53.4581 746.517 39.1918 707.589C29.2092 680.332 24.5999 652.16 24.9631 623.187C25.0132 619.606 24.1615 617.878 20.7296 616.263C3.85801 608.312 -2.55493 593.675 0.902048 576.208C7.02691 545.282 25.5769 522.882 51.4541 506.042C54.5228 504.051 56.8775 501.872 58.7313 498.73C89.1677 447.294 131.541 410.057 188.456 390.262C193.353 388.559 198.288 386.693 203.361 385.904C207.732 385.216 207.957 383.025 207.945 379.531C207.845 350.946 207.87 322.361 207.87 293.764C207.87 260.583 207.895 227.403 207.895 194.236C207.895 190.312 205.874 188.284 201.833 188.15C181.98 187.512 162.553 184.67 144.191 176.631C138.868 174.302 133.983 171.222 129.411 167.604C119.742 159.966 120.368 145.717 132.029 139.081C142.074 133.359 153.009 131.193 164.157 130.48C177.258 129.641 190.41 128.489 203.561 129.378C207.82 129.666 208.22 128.05 208.258 124.495C208.458 100.066 211.677 76.064 219.506 52.8629C224.616 37.7252 232.181 23.9899 244.343 13.1469C264.234 -4.59515 293.242 -4.31969 312.832 13.8105C326.735 26.6694 334.325 43.1342 339.786 60.7761C345.736 79.983 348.441 99.7659 348.491 119.774C348.692 206.168 348.616 292.549 348.491 378.943C348.491 383.338 349.543 385.128 354.052 386.555C418.194 406.914 468.346 444.74 500.51 504.752C502.352 508.195 505.395 510.311 508.226 512.74C527.052 528.967 540.366 548.487 544.336 573.529C546.34 586.162 543.535 597.569 534.892 607.147C532.65 609.626 532.4 612.118 532.462 615.098C533.252 655.378 525.837 694.004 507.675 730.114C477.464 790.189 431.872 833.649 368.131 856.95C364.586 858.252 363.421 859.818 363.509 863.561C363.772 876.082 363.334 888.616 363.872 901.111C363.972 903.34 360.202 905.844 363.985 907.848C366.202 909.024 368.694 908.574 371.062 908.912C385.629 910.94 399.256 915.185 409.715 926.353C415.614 932.664 414.524 944.471 407.498 950.544C399.72 957.267 390.025 959.195 380.368 960.422C360.415 962.952 340.4 962.426 320.522 959.258C313.295 958.106 306.469 955.69 301.02 950.393C291.952 941.579 293.129 927.756 303.438 920.093C312.005 913.72 321.812 910.74 332.133 909.225C336.191 908.624 340.199 907.146 344.433 907.873C347.326 908.361 347.226 906.358 347.214 904.354C347.176 891.633 347.201 878.912 347.201 865.615L347.251 865.565ZM515.791 618.379C501.425 620.407 490.165 614.66 480.432 604.919C475.548 600.036 471.139 594.764 467.707 588.792C463.473 581.442 459.64 573.854 455.482 566.455C449.507 555.824 441.592 546.759 432.874 538.308C428.916 534.464 428.816 530.207 431.997 526.764C435.166 523.345 439.5 523.233 443.746 526.538C444.898 527.427 445.938 528.466 447.015 529.456C459.027 540.374 468.295 553.27 475.084 567.995C480.194 579.076 487.021 588.93 496.402 596.793C503.792 602.978 510.255 603.879 516.981 600.111C525.436 595.378 530.721 584.46 528.417 575.219C522.805 552.782 511.708 533.775 492.519 520.153C490.077 518.425 488.161 516.522 486.77 513.83C480.959 502.536 473.982 491.956 466.141 481.989C449.545 460.929 431.133 441.722 407.636 428.187C387.107 416.368 365.463 407.115 342.592 400.754C332.396 397.924 332.208 397.511 332.196 387.081C332.121 299.861 332.196 212.641 331.845 125.421C331.77 106.064 330.279 86.6942 324.706 67.938C319.858 51.6234 313.232 36.2979 299.993 24.8038C286.616 13.1969 268.993 13.2596 255.691 24.8538C246.034 33.2678 240.21 44.0983 235.588 56.544C240.022 56.544 243.93 56.3813 247.813 56.5941C251.558 56.7945 254.151 58.7978 254.577 62.6542C254.952 65.9973 251.796 68.8395 247.587 69.0148C243.629 69.1776 239.634 69.2902 235.701 68.9522C232.908 68.7143 231.518 69.3153 230.941 72.2201C227.397 90.0247 224.716 107.904 224.478 126.11C224.441 128.965 225.267 129.465 227.898 129.428C236.866 129.278 245.859 129.102 254.815 129.515C266.413 130.054 278.137 130.505 288.921 135.588C304.552 142.95 304.853 160.129 293.042 169.519C286.416 174.791 278.926 178.096 270.947 180.463C258.547 184.144 245.734 185.496 232.92 186.748C224.604 187.562 224.579 187.424 224.579 195.037C224.541 259.719 224.528 324.402 224.491 389.085C224.491 396.86 223.664 397.887 216.174 399.752C164.269 412.636 121.859 440.295 88.9798 482.302C62.6767 515.908 46.9199 553.909 42.7615 596.63C40.3567 621.271 40.8452 645.774 45.7801 669.977C53.4957 707.827 69.1899 742.235 94.6913 771.371C157.593 843.228 236.991 869.346 330.142 851.879C382.134 842.138 425.183 815.093 459.553 774.864C497.855 730.027 515.478 677.577 515.766 618.379H515.791ZM139.181 154.206C144.016 156.949 147.986 159.653 152.308 161.581C169.104 169.069 187.028 170.872 205.139 171.698C218.115 172.287 230.941 170.634 243.717 168.856C253.988 167.428 264.234 165.525 273.903 161.494C277.585 159.954 281.093 158.125 283.435 154.707C284.312 153.43 285.013 152.278 282.708 151.464C274.191 148.447 265.561 146.469 256.405 146.519C229.501 146.694 202.597 146.681 175.692 146.519C169.229 146.481 162.879 147.37 156.541 148.134C150.83 148.823 145.005 149.924 139.169 154.181L139.181 154.206ZM354.19 944.17C360.666 944.17 367.141 944.308 373.604 944.133C380.531 943.933 387.307 942.731 393.62 939.738C397.916 937.697 397.866 936.883 394.033 933.916C387.069 928.507 378.514 927.43 370.36 925.464C359.889 922.935 349.142 923.699 338.584 924.563C330.355 925.239 322.088 927.029 315.149 932.276C309.738 936.357 309.826 937.898 315.875 940.489C318.944 941.791 322.163 942.505 325.47 943.069C335.014 944.709 344.608 944.095 354.19 944.183V944.17ZM211.026 944.158C217.489 944.158 223.965 944.283 230.415 944.12C236.678 943.958 242.853 943.081 248.74 940.715C250.844 939.863 253.988 939.413 254.226 937.196C254.514 934.467 251.195 933.59 249.166 932.326C245.984 930.36 242.452 929.083 238.87 927.943C225.318 923.624 211.364 923.361 197.436 924.55C188.33 925.327 179.275 927.267 171.872 933.378C168.603 936.069 168.666 937.91 172.26 939.938C175.154 941.566 178.435 942.33 181.704 943.019C191.412 945.059 201.244 943.895 211.014 944.145L211.026 944.158ZM39.8306 537.594C27.5308 550.541 19.4896 565.591 16.8968 583.283C15.8823 590.169 19.5271 597.005 25.915 600.762C27.6059 579.026 32.4908 558.091 39.8431 537.594H39.8306Z" fill="#221A17"/>
<path d="M139.181 154.206C145.018 149.949 150.842 148.848 156.554 148.159C162.892 147.383 169.242 146.506 175.705 146.544C202.609 146.694 229.513 146.707 256.418 146.544C265.574 146.481 274.204 148.472 282.721 151.489C285.026 152.303 284.324 153.455 283.447 154.732C281.105 158.151 277.598 159.979 273.916 161.519C264.246 165.55 254 167.454 243.73 168.881C230.954 170.659 218.141 172.312 205.152 171.723C187.04 170.897 169.117 169.094 152.32 161.606C147.999 159.678 144.016 156.974 139.194 154.232L139.181 154.206Z" fill="#FDBC28"/>
<path d="M354.19 944.158C344.608 944.07 335.001 944.684 325.469 943.044C322.163 942.48 318.944 941.766 315.875 940.464C309.813 937.872 309.738 936.332 315.149 932.251C322.088 927.004 330.354 925.214 338.583 924.538C349.13 923.674 359.876 922.897 370.36 925.439C378.526 927.418 387.069 928.482 394.033 933.891C397.866 936.871 397.916 937.685 393.619 939.713C387.307 942.705 380.531 943.907 373.604 944.108C367.141 944.296 360.665 944.145 354.19 944.145V944.158Z" fill="#FDBC28"/>
<path d="M211.038 944.145C201.269 943.882 191.436 945.059 181.729 943.018C178.448 942.33 175.179 941.579 172.285 939.938C168.678 937.91 168.628 936.069 171.897 933.377C179.299 927.255 188.343 925.326 197.461 924.55C211.389 923.348 225.342 923.624 238.895 927.943C242.477 929.083 245.996 930.36 249.19 932.326C251.232 933.59 254.551 934.467 254.251 937.196C254.013 939.4 250.869 939.863 248.765 940.715C242.878 943.081 236.703 943.957 230.44 944.12C223.977 944.283 217.514 944.158 211.051 944.158L211.038 944.145Z" fill="#FDBC28"/>
<path d="M278.412 97.7376C285.376 97.7125 291.376 103.785 291.426 110.922C291.476 117.52 286.203 122.904 279.714 122.917C273.226 122.917 267.227 116.807 267.076 110.033C266.926 103.309 272.036 97.7626 278.412 97.7376Z" fill="#221A17"/>
<path d="M241.638 98.902C248.088 98.902 253.349 104.186 253.399 110.709C253.449 116.581 247.863 122.654 242.402 122.692C236.239 122.717 230.878 117.095 230.791 110.484C230.691 103.635 235.137 98.902 241.65 98.902H241.638Z" fill="#221A17"/>
<path d="M278.512 69.6659C275.669 69.453 273.189 69.3153 270.709 69.0899C267.064 68.7644 264.935 66.4856 264.784 63.0924C264.647 59.8871 266.688 57.5708 270.007 57.1325C275.356 56.4188 280.767 56.4439 286.115 57.1576C289.559 57.6208 291.964 59.9121 291.764 63.4681C291.576 66.9238 289.221 69.0023 285.614 69.2527C283.134 69.428 280.654 69.5407 278.512 69.6534V69.6659Z" fill="#221A17"/>
</g>
<defs>
<clipPath id="clip0_383_90">
<rect width="545" height="962" fill="white"/>
</clipPath>
</defs>
</svg>
