<svg width="160" height="213" viewBox="0 0 160 213" fill="none" xmlns="http://www.w3.org/2000/svg">
<g clip-path="url(#clip0_383_22)">
<path d="M80 212.99C59.6771 212.99 39.3543 212.98 19.0315 213C15.1008 213 11.379 212.332 8.04648 210.003C3.0809 206.531 0.484176 201.654 0.0331913 195.492C-0.0047864 195.002 0.00470802 194.503 0.00470802 194.013C0.00470802 157.167 -0.0047864 120.326 0.00470802 83.4799C0.00470802 74.4489 5.76782 67.0648 14.2558 65.2497C15.7512 64.9283 17.3178 64.8838 18.8511 64.8788C26.7315 64.8442 34.6119 64.859 42.4922 64.864C44.4339 64.864 44.4386 64.8689 44.4386 66.8225C44.4386 71.6348 44.4528 76.4519 44.4386 81.2642C44.4291 83.4403 44.8184 83.381 42.4733 83.381C34.8872 83.3859 27.3059 83.381 19.7199 83.381C17.783 83.381 17.7783 83.3909 17.7783 85.3544C17.7783 121.088 17.7783 156.821 17.7783 192.554C17.7783 194.453 17.783 194.463 19.6012 194.463C59.8338 194.463 100.066 194.463 140.299 194.463C142.207 194.463 142.212 194.453 142.212 192.46C142.212 156.786 142.212 121.117 142.212 85.4434C142.212 83.3365 142.573 83.376 140.185 83.376C132.599 83.376 125.018 83.376 117.432 83.376C115.172 83.376 115.561 83.3612 115.557 81.3483C115.542 76.4124 115.585 71.4715 115.528 66.5356C115.514 65.319 115.751 64.8145 117.057 64.8244C125.35 64.8838 133.648 64.7552 141.942 64.8838C152.542 65.0519 159.976 72.9652 159.986 83.9943C160.009 120.652 160.005 157.311 159.986 193.974C159.981 204.607 152.912 212.337 142.744 212.941C141.918 212.99 141.087 212.99 140.256 212.99C120.171 212.99 100.085 212.99 79.9952 212.99H80Z" fill="white"/>
<path d="M70.7854 32.0436C67.5146 35.4216 64.2628 38.8193 60.9635 42.1627C58.3145 44.8532 54.4361 45.5109 51.094 43.9283C45.6727 41.3565 44.1251 33.7252 48.3027 29.3036C56.8239 20.2875 65.4306 11.3603 74.0705 2.47275C77.422 -0.974457 82.7484 -0.781571 86.2281 2.80412C92.2571 9.00613 98.2196 15.2724 104.215 21.5091C106.522 23.9078 108.839 26.2966 111.132 28.7052C114.944 32.7113 114.987 38.4138 111.251 42.2319C107.828 45.7335 102.255 45.5752 98.6468 41.8016C95.5184 38.5324 92.4565 35.194 89.366 31.8903C89.2046 31.9645 89.0432 32.0436 88.8771 32.1178C88.8771 32.7558 88.8771 33.3938 88.8771 34.0318C88.8771 62.5442 88.8676 91.0517 88.8913 119.564C88.8913 122.848 87.9893 125.657 85.4258 127.675C82.5823 129.911 79.4349 130.242 76.2163 128.734C73.0878 127.27 71.4643 124.589 71.1367 121.058C71.0655 120.326 71.1083 119.579 71.1083 118.837C71.1083 90.6363 71.1083 62.4305 71.1083 34.2296V32.2019L70.7854 32.0337V32.0436Z" fill="white"/>
</g>
<defs>
<clipPath id="clip0_383_22">
<rect width="160" height="213" fill="white"/>
</clipPath>
</defs>
</svg>
