<svg width="376" height="300" viewBox="0 0 376 300" fill="none" xmlns="http://www.w3.org/2000/svg">
<g clip-path="url(#clip0_383_35)">
<path d="M365.9 243.34C363.66 243.21 361.39 243.15 359.16 243.34C356.83 243.54 356.34 242.67 356.15 240.43C355.38 231.25 354.94 221.98 353.26 212.94C345.08 168.88 322.71 133.38 286.51 107.09C250.76 81.13 210.54 70.93 166.53 76.28C136.74 79.9 109.82 90.71 85.96 108.87C62.99 126.35 45.34 148.18 33.49 174.56C24.07 195.53 19.06 217.49 18.87 240.49C18.85 242.89 18.05 243.49 15.84 243.34C13.48 243.18 11.08 243.19 8.71998 243.38C3.83998 243.77 0.0699806 247.84 0.0499806 252.55C0.0199806 257.48 3.82998 261.58 8.86998 261.98C10.11 262.08 11.37 262.03 12.62 262.03C70.86 262.03 129.11 262.03 187.35 262.03C245.59 262.03 303.84 262.03 362.08 262.03C363.33 262.03 364.58 262.08 365.83 262C370.95 261.69 374.92 257.74 375.02 252.9C375.12 247.86 371.15 243.65 365.91 243.35L365.9 243.34Z" fill="#F28B04"/>
<path d="M346.85 280.75C345.73 280.69 344.6 280.73 343.48 280.73C291.5 280.73 239.52 280.73 187.53 280.73C135.54 280.73 83.5697 280.73 31.5797 280.73C30.2097 280.73 28.8197 280.67 27.4597 280.79C23.0497 281.19 19.4097 284.65 18.8597 288.86C18.2897 293.21 20.7497 297.32 25.1197 298.77C26.8397 299.34 28.7897 299.42 30.6397 299.42C135.23 299.45 239.82 299.45 344.41 299.45C345.28 299.45 346.16 299.48 347.03 299.43C352.33 299.1 356.37 294.97 356.27 290.01C356.17 284.96 352.18 281.03 346.85 280.76V280.75Z" fill="#F28B04"/>
<path d="M180.74 52.91C183.11 55.74 186.4 56.94 190.16 55.64C194.04 54.29 196.61 51.67 196.73 47.47C196.92 41 196.78 34.53 196.78 28.06C196.79 28.06 196.8 28.06 196.81 28.06C196.81 21.71 197.02 15.36 196.75 9.02003C196.51 3.55003 192.33 -0.139975 187.25 0.0100252C182.37 0.150025 178.35 3.96003 178.28 9.18003C178.12 21.75 178.12 34.32 178.34 46.89C178.38 48.94 179.41 51.32 180.74 52.91Z" fill="#F28B04"/>
<path d="M114.34 61.63C116.06 64.18 118.58 65.39 120.83 65.48C129.14 65.57 133.82 57.72 129.75 51.21C123.75 41.61 117.38 32.23 110.92 22.92C107.7 18.27 102.05 17.43 97.7205 20.43C93.6005 23.29 92.4805 28.75 95.4705 33.36C101.64 42.86 108.01 52.23 114.33 61.63H114.34Z" fill="#F28B04"/>
<path d="M254.2 65.46C256.85 65.57 259.5 63.62 261.57 60.48C267.27 51.86 273.06 43.29 278.77 34.68C279.52 33.55 280.16 32.32 280.63 31.04C282.11 26.97 280.57 22.4 277.08 20.23C273.24 17.84 268.01 17.93 265.49 21.49C258.23 31.73 251.06 42.09 244.63 52.86C241.36 58.33 246.56 65.43 254.2 65.45V65.46Z" fill="#F28B04"/>
<path d="M58.8302 99.84C63.1402 103.96 68.6602 103.8 72.5102 99.84C76.0002 96.26 75.9102 90.85 71.9602 86.76C65.9002 80.49 59.7302 74.31 53.4002 68.31C51.8102 66.81 49.4102 66.16 47.3802 65.12C42.9002 65.45 40.1202 67.54 38.4502 71.09C36.7502 74.7 37.2202 78.22 40.0402 81.1C46.2302 87.42 52.4502 93.72 58.8402 99.84H58.8302Z" fill="#F28B04"/>
<path d="M309.6 103.27C311.48 102.41 313.76 101.96 315.17 100.61C322.02 94.08 328.7 87.36 335.32 80.59C337.45 78.41 338.01 75.6 337.16 72.59C335.18 65.59 327.06 63.15 321.72 68.19C315.37 74.18 309.3 80.45 303.14 86.63C302.44 87.33 301.84 88.16 301.35 89.01C297.75 95.23 302.19 102.84 309.59 103.27H309.6Z" fill="#F28B04"/>
<path d="M5.00971 139.25C11.0797 142.42 17.2097 145.47 23.3897 148.44C28.6497 150.97 34.2697 149.19 36.5197 144.48C38.8597 139.58 36.9397 134.34 31.7297 131.66C25.9697 128.7 20.1797 125.8 14.3497 122.98C12.9197 122.29 11.3097 121.98 10.5297 121.74C5.34971 121.68 1.36971 124.69 0.289711 128.85C-0.750289 132.84 1.10971 137.21 5.01971 139.25H5.00971Z" fill="#F28B04"/>
<path d="M338.52 144.44C340.69 148.86 345.93 151.01 350.59 148.88C357.27 145.83 363.83 142.51 370.32 139.07C374.19 137.02 375.85 132.47 374.65 128.51C373.43 124.48 369.6 121.68 364.73 121.74C364.13 121.9 362.84 122.02 361.75 122.55C355.26 125.71 348.74 128.83 342.36 132.22C337.8 134.65 336.3 139.93 338.52 144.44Z" fill="#F28B04"/>
</g>
<defs>
<clipPath id="clip0_383_35">
<rect width="375.03" height="299.46" fill="white"/>
</clipPath>
</defs>
</svg>
