<svg width="296" height="371" viewBox="0 0 296 371" fill="none" xmlns="http://www.w3.org/2000/svg">
<g clip-path="url(#clip0_383_13)">
<path d="M148.624 198.82C161.739 198.82 174.854 198.608 187.962 198.855C232.092 199.696 271.734 228.838 285.601 270.586C288.677 279.843 291.541 289.185 294.115 298.591C301.948 327.252 284.601 356.712 255.628 363.799C249.815 365.22 243.746 365.728 237.763 366.265C221.423 367.735 205.082 369.565 188.699 370.201C168.056 371.007 147.362 371.155 126.705 370.859C111.13 370.632 95.555 369.509 80.0156 368.301C67.9073 367.361 55.7424 366.294 43.7971 364.195C17.9927 359.665 0.227291 338.36 0.000438698 312.292C-0.035007 307.883 0.595926 303.311 1.82944 299.071C5.33147 287.002 8.316 274.65 13.2642 263.16C27.4921 230.103 52.9634 209.822 87.8633 201.279C96.0229 199.279 104.402 198.693 112.824 198.735C124.755 198.799 136.686 198.749 148.617 198.749V198.82H148.624Z" fill="#0066B3"/>
<path d="M147.383 2.19693e-05C193.505 -0.2897 233.942 35.8196 234.225 86.2454C234.487 133.491 196.043 170.802 150.658 172.173C102.608 173.628 62.2852 135.625 61.5195 87.157C60.7752 40.2714 98.7871 0.212014 147.383 2.19693e-05Z" fill="#0066B3"/>
</g>
<defs>
<clipPath id="clip0_383_13">
<rect width="296" height="371" fill="white"/>
</clipPath>
</defs>
</svg>
