<svg width="314" height="385" viewBox="0 0 314 385" fill="none" xmlns="http://www.w3.org/2000/svg">
<g clip-path="url(#clip0_383_98)">
<path d="M145.649 289.953C118.37 289.953 91.6805 290.16 64.9963 289.808C58.181 289.716 51.0253 288.874 44.6543 286.613C19.9438 277.845 4.51851 260.322 0.796354 234.284C-3.13355 206.805 7.54818 185.157 30.5852 169.687C33.5975 167.668 36.9157 166.105 40.1358 164.311C32.0509 127.268 45.4161 100.544 78.6962 84.0475C78.2807 75.7356 76.9361 67.4411 77.6344 59.3253C80.1043 30.4846 100.319 7.87353 128.596 1.57472C132.861 0.622981 137.316 0.0750083 141.679 0.0750083C154.634 0.0750083 167.659 -0.351834 180.527 0.836402C209.283 3.48974 234.53 30.2654 236.308 59.06C236.562 63.1842 236.671 67.3603 236.348 71.473C236.031 75.5741 235.084 79.6234 234.363 84.0129C249.835 90.4905 262.051 100.902 269.49 116.286C276.905 131.617 278.29 147.578 273.489 163.786C278.475 166.913 283.623 169.601 288.164 173.079C324.497 200.887 322.102 254.923 283.519 279.858C273.108 286.584 261.676 289.947 249.275 289.953C223.837 289.964 198.405 289.953 172.968 289.953H168.316C168.316 291.475 168.316 292.802 168.316 294.129C168.316 320.299 168.345 346.475 168.299 372.645C168.282 381.672 160.936 387.111 152.88 384.216C148.309 382.572 145.655 378.367 145.655 372.57C145.637 346.521 145.649 320.478 145.649 294.429C145.649 293.073 145.649 291.718 145.649 289.953ZM145.614 267.301C145.614 265.6 145.614 264.365 145.614 263.131C145.614 235.824 145.574 208.518 145.678 181.212C145.689 178.541 144.824 176.84 142.844 175.149C131.92 165.845 121.06 156.466 110.297 146.984C108.468 145.374 106.702 143.327 105.784 141.112C103.747 136.186 105.525 131.3 109.882 128.174C114.221 125.059 119.536 125.284 124.124 129.108C130.212 134.184 136.139 139.462 142.146 144.63C143.115 145.461 144.154 146.211 145.655 147.382C145.655 140.385 145.481 134.219 145.701 128.064C145.966 120.646 152.868 115.755 159.995 117.664C165.154 119.049 168.282 123.657 168.288 130.123C168.311 156.42 168.299 182.723 168.299 209.02C168.299 210.295 168.299 211.569 168.299 213.583C170.036 212.106 171 211.304 171.946 210.491C177.752 205.467 183.494 200.368 189.38 195.442C195.197 190.568 201.689 190.885 206.138 196.053C210.345 200.945 209.63 207.901 204.332 212.481C193.189 222.108 181.987 231.666 170.867 241.316C169.811 242.233 168.467 243.588 168.426 244.771C168.201 252.154 168.311 259.543 168.311 267.157C169.373 267.215 170.105 267.29 170.833 267.29C197.026 267.29 223.22 267.52 249.408 267.215C279.254 266.863 299.106 237.359 288.389 209.516C282.757 194.882 271.879 186.161 256.633 182.81C248.005 180.912 244.479 174.082 248.063 166.03C248.525 164.998 249.056 163.994 249.511 162.961C256.073 148.045 254.734 133.775 245.622 120.358C238.737 110.223 228.771 104.986 216.855 102.696C208.533 101.092 205.151 93.6053 208.718 85.9452C209.249 84.8089 209.878 83.713 210.391 82.5651C221.714 57.3064 206.202 27.3468 178.819 23.6494C165.339 21.8266 151.379 22.0747 137.766 23.0899C122.11 24.2493 110.418 32.8726 103.736 47.2238C97.8667 59.8214 98.3573 72.592 104.659 85.0339C108.987 93.588 105.577 100.879 96.1817 102.961C95.443 103.123 94.7044 103.261 93.9599 103.4C75.3203 106.907 60.6913 124.28 60.2758 143.217C60.0969 151.483 62.3476 159.033 65.8966 166.417C69.4398 173.777 65.862 180.739 57.9675 182.683C56.8711 182.954 55.7515 183.156 54.6493 183.415C36.6214 187.718 22.8523 204.711 22.5522 223.019C22.1425 248.411 40.3724 267.145 65.7639 267.272C84.2765 267.365 102.783 267.29 121.296 267.29C129.219 267.29 137.143 267.29 145.614 267.29V267.301Z" fill="#568A35"/>
</g>
<defs>
<clipPath id="clip0_383_98">
<rect width="314" height="385" fill="white"/>
</clipPath>
</defs>
</svg>
