<svg width="183" height="252" viewBox="0 0 183 252" fill="none" xmlns="http://www.w3.org/2000/svg">
<g clip-path="url(#clip0_383_18)">
<path d="M169.946 123.335C169.946 132.26 169.806 141.19 169.982 150.115C170.182 160.367 173.067 169.934 178.3 178.737C180.689 182.757 182.48 186.873 182.915 191.608C183.974 203.073 175.184 214.762 163.793 216.727C161.791 217.072 159.74 217.218 157.708 217.23C150.527 217.29 143.34 217.303 136.16 217.212C134.635 217.193 134.139 217.751 133.77 219.121C128.846 237.304 116.953 248.308 98.5447 251.357C78.0312 254.752 60.0585 244.258 52.1883 227.512C50.9118 224.802 50.0831 221.862 49.2483 218.964C48.8671 217.63 48.3227 217.206 46.9495 217.218C39.3152 217.284 31.6748 217.321 24.0405 217.23C13.1274 217.096 4.15613 210.349 1.09514 199.957C-0.834618 193.409 -0.284124 186.964 3.3818 181.174C9.8607 170.946 12.5224 159.621 12.9277 147.787C13.4359 132.902 13.1879 117.988 13.5206 103.092C13.7686 91.9422 15.2386 80.9504 19.2735 70.4314C22.631 61.6889 27.4705 53.9285 34.4031 47.5808C38.5227 43.8097 42.6181 39.972 47.0523 36.5889C53.9063 31.3567 61.716 27.9131 70.0219 25.6456C71.6491 25.203 72.0968 24.627 71.8185 22.8931C70.3606 13.8595 74.1899 5.92333 81.5822 2.29778C90.1058 -1.88555 100.698 -0.278907 106.705 6.26285C110.94 10.8706 111.962 16.4847 111.285 22.5293C111.242 22.9052 111.176 23.2811 111.079 23.6449C110.698 25.0818 111.158 25.6577 112.688 26.1367C143.389 35.7098 162.299 56.1051 168.585 87.7892C169.546 92.6455 169.679 97.7019 169.825 102.679C170.024 109.561 169.873 116.448 169.873 123.329C169.897 123.329 169.927 123.329 169.952 123.329L169.946 123.335ZM91.2794 200.303C113.281 200.303 135.283 200.303 157.284 200.29C158.409 200.29 159.553 200.206 160.654 199.975C164.519 199.157 166.721 195.889 165.874 192.051C165.608 190.845 164.949 189.65 164.223 188.626C161.325 184.503 159.305 179.974 157.696 175.233C154.241 165.029 153.032 154.45 152.802 143.767C152.584 133.86 152.765 123.948 152.802 114.041C152.832 106.554 153.038 99.066 151.846 91.633C150.019 80.1865 145.96 69.6433 138.005 61.1129C121.786 43.7067 101.527 37.8439 78.2974 41.1421C55.6787 46.9199 40.2407 60.4582 33.4231 83.0966C30.6101 92.4454 30.1806 102.134 30.1201 111.84C30.0354 124.772 30.1261 137.71 29.739 150.636C29.4365 160.731 27.6459 170.643 23.4295 179.925C21.905 183.278 19.9087 186.425 18.0758 189.626C15.2628 194.537 17.8338 199.672 23.4597 200.278C24.2098 200.357 24.9721 200.315 25.7282 200.315C47.5786 200.315 69.429 200.315 91.2794 200.315V200.303ZM66.7068 217.351C68.4006 226.991 80.7111 235.285 92.9006 234.933C105.393 234.576 114.914 224.475 116.288 217.351H66.7068ZM94.6489 19.6374C94.6126 17.861 93.2636 16.6909 91.3278 16.7757C89.4706 16.8545 88.3394 18.0004 88.3817 19.7647C88.4241 21.535 89.6158 22.6566 91.4427 22.6385C93.4088 22.6203 94.6852 21.4259 94.6489 19.6434V19.6374Z" fill="white"/>
</g>
<defs>
<clipPath id="clip0_383_18">
<rect width="183" height="252" fill="white"/>
</clipPath>
</defs>
</svg>
