<svg width="191" height="190" viewBox="0 0 191 190" fill="none" xmlns="http://www.w3.org/2000/svg">
<g clip-path="url(#clip0_383_109)">
<path d="M168.205 0C169.575 0.341406 170.956 0.643229 172.316 1.02422C183.163 4.07214 190.741 13.5523 190.901 24.7396C191.07 36.7284 190.985 48.7221 190.93 60.7109C190.906 65.5995 187.572 68.9047 182.789 69.0482C177.547 69.2065 174.164 66.3615 173.671 61.3542C173.591 60.5576 173.586 59.751 173.586 58.9495C173.581 48.5044 173.586 38.0594 173.581 27.6143C173.581 26.7484 173.581 25.8826 173.512 25.0216C173.168 20.6081 170.308 17.6987 165.893 17.382C163.915 17.2435 161.922 17.293 159.934 17.288C150.433 17.2781 140.926 17.2979 131.424 17.2682C130.129 17.2682 128.793 17.2138 127.543 16.912C124.005 16.056 121.723 13.0674 121.564 9.32187C121.384 5.00234 123.213 1.92474 126.756 0.59375C127.269 0.400781 127.782 0.197917 128.295 0C141.599 0 154.902 0 168.2 0L168.205 0Z" fill="white"/>
<path d="M0 127.656C0.0946679 127.498 0.239161 127.349 0.274039 127.176C1.54956 121.516 7.48375 119.873 12.0876 121.501C14.9575 122.515 16.6366 124.648 17.1449 127.617C17.3392 128.765 17.3641 129.952 17.3641 131.125C17.379 141.624 17.3691 152.124 17.379 162.623C17.379 163.672 17.394 164.726 17.5235 165.765C17.9769 169.372 20.7273 172.108 24.3596 172.559C25.4009 172.687 26.4672 172.712 27.5185 172.712C38.196 172.722 48.8736 172.707 59.5511 172.732C60.8466 172.732 62.1819 172.786 63.4275 173.093C66.9601 173.954 69.2371 176.938 69.3916 180.683C69.571 184.998 67.7374 188.065 64.1898 189.401C63.6766 189.594 63.1684 189.797 62.6552 190H22.7502C22.4114 189.881 22.0776 189.723 21.7288 189.654C11.0014 187.67 4.05079 181.499 0.911802 171.099C0.543095 169.872 0.303934 168.605 0 167.358C0 154.123 0 140.887 0 127.651L0 127.656Z" fill="white"/>
<path d="M128.3 190C128.085 189.891 127.881 189.733 127.652 189.678C120.786 187.981 120.318 179.763 123.143 176.007C124.433 174.295 126.147 173.246 128.265 172.935C129.366 172.771 130.492 172.732 131.608 172.727C142.291 172.712 152.978 172.737 163.661 172.697C165.076 172.697 166.541 172.608 167.891 172.227C171.144 171.312 172.933 168.996 173.431 165.711C173.586 164.677 173.576 163.618 173.581 162.569C173.591 152.124 173.586 141.679 173.586 131.234C173.586 130.556 173.586 129.873 173.616 129.195C173.984 121.15 181.623 119.675 186.217 121.719C189.63 123.238 190.945 126.108 190.95 129.66C190.97 141.278 190.965 152.901 190.94 164.518C190.94 165.686 190.796 166.859 190.641 168.021C189.131 179.184 180.586 187.877 169.42 189.639C169.007 189.703 168.613 189.876 168.21 190H128.305H128.3Z" fill="white"/>
<path d="M62.6552 0C62.8097 0.0940104 62.9591 0.242448 63.1286 0.277083C69.3916 1.68724 70.5376 8.49557 68.5545 12.726C67.3936 15.2 65.3607 16.6299 62.6652 17.0654C61.569 17.2435 60.438 17.2732 59.3219 17.2732C48.9433 17.288 38.5597 17.2831 28.1811 17.2831C27.6829 17.2831 27.1846 17.2831 26.6914 17.2831C20.4782 17.3672 17.4139 20.3805 17.384 26.5505C17.3491 34.2198 17.3741 41.8891 17.3741 49.5583C17.3741 53.1456 17.4388 56.7328 17.3491 60.3201C17.2345 65.0651 14.8579 68.1625 10.6775 68.8948C4.9028 69.9091 1.08121 66.8414 0.279021 62.8188C0.244144 62.6505 0.0946679 62.5021 0 62.3438C0 49.1081 0 35.8724 0 22.6367C0.114598 22.2953 0.279021 21.9638 0.343794 21.6125C2.32684 10.9349 8.54502 4.0276 18.9934 0.905469C20.2241 0.534375 21.4946 0.296875 22.7502 0C36.0535 0 49.3569 0 62.6552 0Z" fill="white"/>
<path d="M34.7032 60.3547C34.7032 54.8527 34.6932 49.3555 34.7032 43.8534C34.7181 37.7675 37.9119 34.5415 43.9906 34.5316C55.1714 34.5118 66.3472 34.5118 77.528 34.5316C83.517 34.5415 86.8004 37.7527 86.8154 43.6803C86.8503 54.8675 86.8503 66.0498 86.8154 77.237C86.7955 83.0706 83.5369 86.361 77.7024 86.3857C66.397 86.4303 55.0967 86.4303 43.7913 86.3857C37.9518 86.361 34.7231 83.0558 34.7032 77.2271C34.6833 71.6014 34.7032 65.9805 34.7032 60.3547ZM69.4114 60.5477C69.4114 58.0738 69.3766 55.5998 69.4264 53.1308C69.4463 52.1758 69.1374 51.8394 68.1608 51.8443C63.253 51.879 58.3453 51.8889 53.4375 51.8443C52.3463 51.8344 52.0822 52.255 52.0922 53.2545C52.1271 58.0738 52.1321 62.898 52.0922 67.7222C52.0822 68.7662 52.421 69.0977 53.4724 69.0928C58.3203 69.0482 63.1634 69.0334 68.0114 69.1027C69.2171 69.1175 69.4712 68.687 69.4364 67.5985C69.3666 65.2532 69.4164 62.9029 69.4164 60.5527L69.4114 60.5477Z" fill="white"/>
<path d="M130.263 34.5266C135.789 34.5266 141.319 34.5118 146.845 34.5266C153.048 34.5464 156.242 37.7378 156.247 43.9227C156.257 54.9863 156.262 66.0448 156.247 77.1084C156.237 83.0657 153.018 86.361 147.084 86.3808C135.779 86.4204 124.478 86.4154 113.173 86.3808C108.709 86.3659 105.644 84.2977 104.598 80.6313C104.279 79.518 104.15 78.3206 104.145 77.1579C104.11 66.035 104.11 54.912 104.13 43.7891C104.145 37.7378 107.383 34.5464 113.492 34.5266C119.082 34.5068 124.673 34.5266 130.263 34.5266ZM138.843 60.5576C138.843 58.0836 138.813 55.6097 138.858 53.1407C138.878 52.1956 138.574 51.8394 137.587 51.8443C132.68 51.8839 127.772 51.874 122.864 51.8443C121.972 51.8394 121.514 52.0126 121.524 53.0516C121.568 57.9946 121.559 62.9425 121.529 67.8904C121.524 68.7514 121.783 69.0829 122.69 69.0779C127.662 69.0482 132.63 69.0433 137.602 69.0779C138.599 69.0878 138.883 68.7217 138.863 67.7816C138.818 65.3719 138.848 62.9623 138.848 60.5477L138.843 60.5576Z" fill="white"/>
<path d="M34.7033 129.393C34.7033 123.891 34.6933 118.394 34.7033 112.892C34.7182 106.845 37.9369 103.624 44.0405 103.609C55.2213 103.585 66.3971 103.585 77.5779 103.609C82.2016 103.619 85.2759 105.628 86.3421 109.349C86.661 110.462 86.8005 111.66 86.8005 112.822C86.8354 123.945 86.8404 135.068 86.8155 146.191C86.8005 152.242 83.5469 155.459 77.4583 155.468C66.3423 155.488 55.2263 155.488 44.1053 155.468C37.8971 155.459 34.7082 152.257 34.6983 146.077C34.6883 140.516 34.6983 134.954 34.6983 129.393H34.7033ZM69.4115 129.7C69.4115 127.166 69.3816 124.628 69.4265 122.095C69.4414 121.219 69.1474 120.912 68.2556 120.917C63.283 120.947 58.3154 120.957 53.3429 120.917C52.3314 120.907 52.0873 121.298 52.0923 122.223C52.1222 127.107 52.1271 131.991 52.0923 136.874C52.0873 137.829 52.4012 138.166 53.3728 138.156C58.2806 138.121 63.1883 138.111 68.0961 138.161C69.1973 138.171 69.4464 137.74 69.4265 136.746C69.3716 134.395 69.4115 132.05 69.4065 129.7H69.4115Z" fill="white"/>
<path d="M134.439 155.469C130.154 155.469 125.869 155.498 121.579 155.464C114.802 155.404 111.673 149.986 113.268 143.979C114.11 140.813 116.337 138.977 119.561 138.403C120.652 138.21 121.783 138.156 122.899 138.151C130.662 138.131 138.43 138.136 146.192 138.146C147 138.146 147.812 138.161 148.609 138.26C153.542 138.858 156.451 142.317 156.237 147.29C156.028 152.079 152.769 155.33 147.857 155.444C143.387 155.548 138.913 155.464 134.439 155.464V155.473V155.469Z" fill="white"/>
<path d="M121.668 116.697C121.534 118.794 121.593 120.981 121.215 123.089C120.472 127.231 117.104 129.611 112.505 129.522C108.225 129.437 104.812 126.904 104.443 122.812C104.07 118.656 104.07 114.416 104.458 110.264C104.842 106.177 108.4 103.634 112.789 103.609C117.174 103.585 120.532 106.088 121.23 110.18C121.593 112.293 121.529 114.48 121.663 116.697H121.668Z" fill="white"/>
<path d="M143.218 121.056C141.055 120.927 138.858 120.986 136.735 120.62C132.63 119.913 130.153 116.583 130.183 112.189C130.213 107.82 132.764 104.347 136.895 103.926C140.821 103.525 144.837 103.471 148.773 103.788C153.621 104.173 156.436 107.825 156.232 112.723C156.038 117.434 152.874 120.635 148.061 120.902C146.451 120.991 144.832 120.917 143.218 120.917C143.218 120.962 143.218 121.011 143.213 121.056H143.218Z" fill="white"/>
</g>
<defs>
<clipPath id="clip0_383_109">
<rect width="191" height="190" fill="white"/>
</clipPath>
</defs>
</svg>
