<svg width="291" height="392" viewBox="0 0 291 392" fill="none" xmlns="http://www.w3.org/2000/svg">
<g clip-path="url(#clip0_383_55)">
<path d="M288.711 191.254C285.788 187.975 282.153 187.645 278.055 188.884C266.179 192.475 254.036 194.409 241.572 194.071C232.61 193.741 222.89 193.286 213.776 191.468C183.707 185.462 158.655 170.436 139.126 146.917C112.461 114.806 103.364 77.7673 110.795 36.8072C112.273 28.6704 115.267 20.8099 117.699 12.8603C119.169 8.05667 118.216 4.20663 114.519 1.6132C111.507 -0.507887 108.327 -0.276172 104.986 0.802196C76.9487 9.85692 53.277 25.6849 34.8261 48.4821C2.61951 88.2926 -7.46566 133.602 5.47045 183.144C25.329 259.192 100.665 306.515 178.085 292.309C202.55 287.817 224.609 277.8 244.138 262.293C264.487 246.126 279.703 226.092 289.815 202.154C291.464 198.25 291.633 194.543 288.702 191.254H288.711Z" fill="#F5D63A"/>
<path d="M272.825 325.195C271.614 325.061 270.384 325.052 269.164 325.052C191.351 325.052 113.529 325.052 35.7168 325.052C34.2735 325.052 32.8213 325.07 31.3959 325.275C26.0058 326.041 22.5936 331.415 24.0993 336.638C25.3911 341.103 28.8033 343.393 34.3092 343.402C73.6609 343.411 113.013 343.402 152.364 343.402C191.271 343.402 230.177 343.402 269.083 343.402C270.304 343.402 271.533 343.465 272.745 343.34C277.369 342.867 281.057 338.902 281.093 334.437C281.138 329.606 277.69 325.738 272.816 325.204L272.825 325.195Z" fill="#F5D63A"/>
<path d="M228.681 373.552C177.783 373.525 126.884 373.534 75.9775 373.552C74.9886 373.552 73.973 373.668 73.0108 373.882C68.7522 374.835 65.8656 378.471 65.8745 382.749C65.8924 387.089 68.7344 390.743 72.984 391.626C74.4897 391.938 76.0666 391.973 77.6168 391.973C102.509 391.991 127.401 391.991 152.302 391.991C177.203 391.991 202.309 392 227.317 391.964C229.081 391.964 230.908 391.875 232.592 391.412C237.126 390.164 239.808 385.209 238.605 380.655C237.358 375.94 234.16 373.543 228.681 373.543V373.552Z" fill="#F5D63A"/>
</g>
<defs>
<clipPath id="clip0_383_55">
<rect width="291" height="392" fill="white"/>
</clipPath>
</defs>
</svg>
