<svg width="217" height="361" viewBox="0 0 217 361" fill="none" xmlns="http://www.w3.org/2000/svg">
<g clip-path="url(#clip0_383_100)">
<path d="M140.47 0C142.607 0.488367 144.787 0.850121 146.871 1.49525C163.834 6.74068 173.943 17.9972 176.757 35.6086C176.944 36.7964 177.101 37.9902 177.277 39.1779C177.289 39.2684 177.367 39.3467 177.536 39.6422C194.203 41.1857 206.891 48.9634 213.667 64.7901C220.491 80.7374 216.348 94.9543 205.75 107.965C210.388 113.916 214.101 120.283 215.829 127.633C220.726 148.494 208.292 168.963 187.029 175.059C185.296 175.553 183.515 176.246 181.757 176.234C178.104 176.21 177.083 177.922 176.642 181.365C173.176 208.334 144.51 224.118 119.817 212.808C119.376 212.603 118.911 212.44 118.132 212.126V272.352C119.871 270.785 121.641 269.35 123.223 267.734C135.083 255.639 148.501 245.902 165.187 241.802C172.445 240.018 180.012 239.342 187.488 238.673C193.684 238.118 197.652 242.073 197.525 248.29C197.06 271.267 189.366 291.296 173.442 308.196C158.961 323.565 141.478 332.819 120.572 335.611C118.398 335.9 117.758 336.612 117.806 338.77C117.951 345.089 117.854 351.407 117.854 357.726C117.854 358.805 117.854 359.885 117.854 361H98.3548V336.485C91.5188 334.634 84.864 333.175 78.4447 331.023C48.0572 320.833 19.729 289.909 19.4391 248.579C19.3908 241.712 22.7846 238.468 29.6387 238.583C53.3291 238.974 73.3419 247.856 89.991 264.538C91.3376 265.889 92.6662 267.258 93.9766 268.644C95.2629 269.995 96.525 271.376 98.1253 273.094V212.759C94.194 213.863 90.2627 215.31 86.2046 216.033C66.989 219.458 47.1755 206.748 41.6198 187.527C40.8166 184.748 40.2852 181.86 39.9712 178.984C39.79 177.326 39.0895 176.946 37.6342 176.608C33.3466 175.607 28.9261 174.842 24.8922 173.184C1.8117 163.7 -6.62458 137.129 6.32272 115.176C7.74789 112.765 9.41461 110.498 11.1478 107.887C0.748859 95.0869 -3.53269 80.8037 3.34556 64.784C10.091 49.0719 22.6397 41.258 39.5243 39.6783C40.0738 36.6456 40.3637 33.5406 41.2212 30.5983C46.1489 13.62 57.514 3.72606 74.8516 0.524543C75.4313 0.416017 75.9808 0.174848 76.5485 0C78.958 0 81.3735 0 83.783 0C90.3714 1.36261 97.1047 2.80962 102.298 7.20493C106.628 10.8647 109.702 10.8164 114.08 7.27125C119.515 2.86991 126.423 1.33246 133.229 0C135.639 0 138.054 0 140.464 0L140.47 0ZM136.895 196.969C143.199 197.12 148.272 194.575 152.197 189.848C157.566 183.391 158.792 176.09 156.122 168.131C153.731 161.004 158.816 154.535 166.322 155.228C167.693 155.355 169.04 155.874 170.38 156.278C182.397 159.913 194.439 152.955 196.945 140.915C198.926 131.383 194.131 121.833 184.765 116.997C181.105 115.104 179.052 112.312 179.088 108.194C179.124 103.896 181.196 100.773 185.006 98.7949C185.363 98.608 185.737 98.4693 186.099 98.2885C193.817 94.4177 197.899 86.8148 197.193 77.6444C196.583 69.7883 191.051 62.909 183.255 60.449C178.394 58.9116 173.587 59.2794 168.768 60.9073C163.206 62.7884 157.403 60.1295 156.014 54.6851C155.392 52.2493 155.778 49.295 156.521 46.823C160.156 34.6439 153.272 22.495 141.104 20.0412C131.508 18.1058 122.033 22.8749 117.166 32.2564C115.264 35.9221 112.431 37.9359 108.319 37.8877C104.152 37.8394 101.06 35.8558 99.0613 32.2021C98.8198 31.762 98.6446 31.2917 98.4212 30.8455C94.5926 23.2547 87.0802 19.191 78.022 19.806C70.0628 20.3486 63.251 25.6905 60.6361 33.4924C58.9754 38.4424 59.3619 43.32 61.0105 48.2278C62.9067 53.8651 60.0141 59.8039 54.4403 61.0459C52.0549 61.5765 49.2348 61.1364 46.8313 60.4189C32.4347 56.114 19.0043 66.3275 19.8256 81.268C20.2664 89.2326 24.246 95.0749 31.4806 98.5538C35.4783 100.477 37.7489 103.528 37.918 107.929C38.0871 112.318 35.8587 115.327 31.9395 117.166C31.4866 117.377 31.0458 117.618 30.611 117.871C20.9488 123.503 17.0356 135.495 21.5768 145.54C25.8886 155.072 36.7887 159.479 47.5197 155.934C51.6805 154.559 55.4669 154.885 58.6977 157.996C62.0069 161.179 62.0432 164.863 60.624 169.06C57.0792 179.532 62.5806 191.591 72.4843 195.618C82.2612 199.598 93.8981 195.172 98.548 185.531C100.523 181.438 103.482 178.996 108.041 178.797C112.745 178.592 115.505 181.208 117.625 185.218C121.671 192.875 128.289 196.643 136.901 196.969H136.895ZM179.444 256.556C160.416 259.118 145.005 267.643 133.175 282.379C124.69 292.942 118.965 304.735 117.921 318.615C148.556 314.497 175.936 289.831 179.45 256.556H179.444ZM98.0468 318.753C100.583 292.291 63.2872 254.735 36.8551 256.936C41.1669 287.009 65.1351 313.532 98.0468 318.753Z" fill="#568A35"/>
<path d="M71.7233 108.134C71.7475 87.3153 87.4666 71.6393 108.343 71.6272C128.827 71.6152 145.15 87.87 145.126 108.261C145.101 128.067 128.199 144.919 108.367 144.9C87.9256 144.882 71.6932 128.603 71.7173 108.134H71.7233ZM108.415 88.6236C97.1227 88.6899 88.6261 97.2695 88.7469 108.496C88.8616 119.662 97.2556 128.007 108.434 128.055C119.69 128.109 128.265 119.578 128.259 108.327C128.259 97.0706 119.678 88.5513 108.421 88.6176L108.415 88.6236Z" fill="#568A35"/>
</g>
<defs>
<clipPath id="clip0_383_100">
<rect width="217" height="361" fill="white"/>
</clipPath>
</defs>
</svg>
