<svg width="193" height="433" viewBox="0 0 193 433" fill="none" xmlns="http://www.w3.org/2000/svg">
<g clip-path="url(#clip0_383_120)">
<path d="M131.071 91.2286C132.301 112.06 124.946 129.417 110.817 144.372C104.044 151.54 96.908 158.074 87.4413 161.497C84.385 162.607 83.867 164.893 83.9317 167.76C84.2555 180.856 84.4756 193.951 84.7476 207.047C85.3692 235.859 85.8872 264.671 86.6642 293.471C87.3506 319.068 88.2571 344.664 89.2155 370.261C89.8112 386.249 90.7048 402.212 91.3782 418.2C91.6113 423.663 88.1276 428.054 81.6265 429.371C71.3957 431.45 61.0483 431.45 50.7916 429.332C49.0044 428.958 47.295 427.899 45.728 426.891C42.1796 424.618 41.0917 421.209 41.286 417.102C41.9206 404.317 42.4515 391.531 42.9307 378.746C43.7207 357.811 44.5365 336.877 45.1711 315.929C45.7539 296.583 46.1683 277.224 46.5698 257.878C47.1266 231.248 47.6187 204.631 48.0979 178.002C48.1627 174.373 47.9684 170.731 47.9295 167.089C47.8907 164.403 46.5698 162.84 44.0315 161.975C28.0507 156.486 16.9263 144.953 8.08113 131.406C2.5254 122.856 0.103673 112.706 6.97328e-05 102.309C-0.129434 88.0903 1.68362 74.1813 7.03214 60.8535C13.0541 45.8726 23.0648 34.2107 36.7663 25.8679C50.2995 17.6155 64.7262 15.265 80.4221 19.4235C94.9007 23.2591 106.504 30.982 115.505 42.5535C122.187 51.1546 126.552 61.0601 128.533 71.805C129.711 78.2236 130.242 84.7584 131.071 91.2415V91.2286Z" fill="#568A35"/>
<path d="M166.957 376.06C166.957 360.201 166.918 344.354 166.957 328.495C167.073 293.458 167.164 258.421 167.384 223.383C167.565 195.178 167.902 166.973 168.2 138.767C168.355 123.502 168.575 108.25 168.731 92.985C168.847 80.7807 168.822 68.5764 169.029 56.3721C169.262 43.0055 169.495 29.626 170.168 16.2724C170.363 12.3076 171.878 8.36864 173.095 4.5201C174.092 1.35603 176.527 0.154972 179.881 0.193715C183.171 0.232459 184.802 1.93718 186.136 4.67507C189.775 12.1914 189.206 20.3146 189.516 28.2184C189.97 39.8415 189.698 51.4904 189.853 63.1265C190.112 83.906 190.565 104.686 190.747 125.465C190.902 143.791 190.721 162.117 190.85 180.443C190.967 195.708 191.42 210.973 191.55 226.251C191.718 246.475 191.627 266.699 191.796 286.923C192.042 316.885 192.443 346.834 192.728 376.796C192.883 392.784 193.039 408.772 192.948 424.76C192.948 426.491 191.809 428.725 190.462 429.875C185.437 434.162 173.341 434.033 168.291 429.668C167.047 428.596 166.037 426.53 166.011 424.903C165.856 416.766 166.089 408.63 166.128 400.494C166.167 392.358 166.128 384.209 166.128 376.073C166.387 376.073 166.659 376.073 166.918 376.073L166.957 376.06Z" fill="#568A35"/>
<path d="M161.893 328.366C161.893 360.226 161.815 392.087 161.997 423.96C162.023 427.899 160.313 430.198 157.166 431.347C151.106 433.555 144.902 433.697 138.893 430.895C136.096 429.591 134.905 427.485 134.969 424.27C135.241 412.195 135.345 400.12 135.423 388.044C135.63 355.177 135.772 322.309 135.954 289.442C136.083 267.332 136.187 245.222 136.42 223.112C136.562 209.294 136.99 195.475 137.171 181.657C137.236 176.426 136.834 171.183 136.873 165.952C137.08 137.734 137.326 109.516 137.637 81.2973C137.831 64.0047 138.103 46.6991 138.453 29.4065C138.57 23.8791 138.686 18.3258 139.45 12.8629C139.929 9.49224 141.263 6.09571 142.843 3.04787C145.071 -1.22686 152.18 -0.95565 154.356 3.52571C155.858 6.61229 157.127 10.0476 157.464 13.4312C158.151 20.5084 158.241 27.6631 158.397 34.779C158.746 51.0514 159.018 67.3237 159.238 83.609C159.394 94.2248 159.433 104.854 159.484 115.469C159.679 148.647 159.782 181.811 160.054 214.989C160.3 245.08 160.754 275.158 161.077 305.249C161.155 312.959 161.077 320.669 161.077 328.379C161.349 328.379 161.621 328.379 161.88 328.379L161.893 328.366Z" fill="#568A35"/>
</g>
<defs>
<clipPath id="clip0_383_120">
<rect width="193" height="433" fill="white"/>
</clipPath>
</defs>
</svg>
