<svg width="315" height="400" viewBox="0 0 315 400" fill="none" xmlns="http://www.w3.org/2000/svg">
<g clip-path="url(#clip0_383_61)">
<path d="M257.564 293.575C257.564 323.97 257.579 354.373 257.549 384.768C257.541 393.263 252.38 399.228 244.608 399.931C236.332 400.681 229.4 394.571 229.079 386.244C229.026 384.845 229.056 383.445 229.056 382.046C229.056 321.883 229.018 261.719 229.148 201.564C229.148 198.146 228.094 196.831 224.956 195.729C212.336 191.302 202.457 183.059 194.418 172.537C183.294 157.986 176.85 141.385 173.834 123.469C169.269 96.3622 171.849 70.0198 183.378 44.8319C188.348 33.9738 195.021 24.2856 203.862 16.1649C227.216 -5.299 259.038 -5.42899 282.468 15.9508C296.219 28.4989 304.693 44.2814 309.579 61.9909C318.603 94.7106 316.603 126.658 301.632 157.397C295.822 169.326 287.965 179.825 276.949 187.441C271.986 190.866 266.413 193.52 260.855 195.921C258.266 197.037 257.503 198.192 257.511 200.853C257.602 223.112 257.564 245.371 257.564 267.63C257.564 276.278 257.564 284.927 257.564 293.575Z" fill="#0066B3"/>
<path d="M57.2831 137.302V133.142C57.2831 108.337 57.2755 83.5311 57.306 58.7256C57.306 56.7069 57.306 54.6041 57.8175 52.6772C59.6651 45.7111 66.2386 41.5361 73.5985 42.4155C80.4163 43.2336 85.6918 49.0833 85.7376 56.3781C85.8445 75.074 85.7834 93.7775 85.7911 112.473C85.7911 120.739 85.7911 129.005 85.7911 137.784C86.9363 137.157 87.8295 136.797 88.5701 136.247C94.8 131.59 99.4725 125.587 103.16 118.835C112.199 102.296 115.215 84.4257 114.322 65.8063C113.566 50.0926 109.634 35.2583 101.694 21.525C97.7088 14.6278 100.19 6.18598 106.848 2.26329C113.681 -1.76646 122.148 0.321058 126.431 7.35591C133.989 19.7739 138.654 33.3084 141.02 47.5922C145.517 74.7146 142.983 101.057 131.424 126.23C125.667 138.755 117.796 149.743 106.848 158.33C101.503 162.52 95.7162 166.007 89.2114 167.957C86.2492 168.844 85.7147 170.327 85.73 173.118C85.8369 195.63 85.7911 218.149 85.7911 240.661C85.7911 288.238 85.8063 335.807 85.7529 383.384C85.7529 385.892 85.6078 388.538 84.7986 390.87C82.5387 397.392 75.9118 400.94 68.9108 399.77C62.49 398.7 57.6267 393.156 57.3213 386.504C57.2526 384.982 57.2831 383.453 57.2831 381.923C57.2831 312.47 57.2526 243.016 57.3747 173.57C57.3747 170.167 56.367 168.813 53.2215 167.705C37.7917 162.276 26.6832 151.509 18.0866 137.982C7.93243 122.016 2.60341 104.406 0.748177 85.6568C-1.42008 63.78 1.03066 42.5149 9.32958 22.0756C11.1848 17.5029 13.4141 13.045 15.8343 8.73229C20.4075 0.558102 28.8744 -2.06467 36.1503 2.2327C43.8537 6.79006 44.4492 16.0271 40.7998 22.9014C24.8586 52.9371 24.5913 83.6993 37.807 114.737C40.8151 121.802 45.2966 128.019 50.9616 133.287C52.6947 134.901 54.6491 136.285 56.4967 137.776C56.7563 137.615 57.0159 137.462 57.2755 137.302H57.2831Z" fill="#0066B3"/>
</g>
<defs>
<clipPath id="clip0_383_61">
<rect width="315" height="400" fill="white"/>
</clipPath>
</defs>
</svg>
