<svg width="177" height="135" viewBox="0 0 177 135" fill="none" xmlns="http://www.w3.org/2000/svg">
<g clip-path="url(#clip0_383_20)">
<path d="M132.203 80.5457C131.19 80.5457 130.571 80.5457 129.953 80.5457C91.1518 80.5457 52.3511 80.5488 13.5503 80.5426C7.97051 80.5426 3.73979 78.1497 1.31514 73.091C-2.8876 64.3236 3.48178 54.5289 13.3358 54.5258C52.2392 54.5102 91.1456 54.5196 130.049 54.5196C130.664 54.5196 131.28 54.5196 132.194 54.5196C131.656 53.9392 131.302 53.5295 130.922 53.1478C120.711 42.8938 110.487 32.649 100.285 22.3857C96.3151 18.3946 95.2115 12.8331 97.3285 7.8271C100.776 -0.325848 111.463 -2.61935 118.097 3.37665C118.594 3.82666 119.06 4.31391 119.536 4.78875C137.351 22.5719 155.166 40.3551 172.984 58.1352C178.275 63.4142 178.352 71.3406 173.161 76.7439C172.981 76.9301 172.797 77.1101 172.614 77.2932C154.799 95.0763 136.978 112.853 119.172 130.646C116.95 132.868 114.404 134.382 111.255 134.86C106.029 135.649 100.67 133.057 98.0123 128.402C95.3577 123.75 95.8115 117.834 99.1656 113.732C99.6878 113.092 100.275 112.506 100.86 111.922C110.844 101.951 120.832 91.9852 130.82 82.0167C131.208 81.6288 131.575 81.2191 132.209 80.5488L132.203 80.5457Z" fill="white"/>
</g>
<defs>
<clipPath id="clip0_383_20">
<rect width="177" height="135" fill="white"/>
</clipPath>
</defs>
</svg>
