<svg width="212" height="212" viewBox="0 0 212 212" fill="none" xmlns="http://www.w3.org/2000/svg">
<g clip-path="url(#clip0_383_32)">
<path d="M193.144 57.416V55.2643C193.144 46.2333 193.123 37.2024 193.149 28.1714C193.165 23.5224 196.535 19.6902 201.182 18.9206C205.39 18.2243 209.818 20.8053 211.288 24.9517C211.717 26.1558 211.948 27.5013 211.948 28.7787C211.995 42.7152 212.021 56.6569 211.958 70.5934C211.922 79.9385 204.741 87.1161 195.378 87.1528C180.463 87.2156 165.547 87.1894 150.637 87.1633C145.351 87.1528 141.305 82.9383 141.311 77.5773C141.311 72.5566 145.471 68.3684 150.585 68.337C158.566 68.2951 166.547 68.3265 174.528 68.3265C175.245 68.3265 175.957 68.3265 177.113 68.3265C175.517 65.2429 174.219 62.332 172.581 59.6254C160.748 40.0975 143.802 27.2657 121.727 21.4073C111.71 18.753 101.494 18.2452 91.1839 19.5069C73.8557 21.6272 58.6104 28.3965 45.6888 40.1132C31.1187 53.322 22.2007 69.6406 19.6049 89.2626C19.2542 91.9222 18.9978 94.5817 17.098 96.7492C14.3085 99.927 10.038 101.006 6.24891 99.3773C2.38132 97.7177 0.104737 93.765 0.53912 89.5768C2.17198 73.7398 7.30608 59.1228 16.1037 45.8773C30.679 23.9203 50.8177 9.61735 76.3469 3.07317C88.2322 0.0262015 100.322 -0.727688 112.542 0.69109C137.291 3.56006 158.21 14.1145 175.391 32.0717C181.98 38.9562 187.392 46.7307 191.657 55.28C191.977 55.924 192.322 56.5522 192.673 57.1752C192.72 57.259 192.871 57.2799 193.144 57.416Z" fill="white"/>
<path d="M18.8565 154.725C18.8565 155.416 18.8565 156.102 18.8565 156.793C18.8565 165.693 18.8879 174.588 18.8408 183.488C18.8146 188.698 15.0884 192.786 10.1584 193.158C4.80446 193.561 0.167545 189.404 0.0367071 183.975C-0.0470295 180.509 0.0157729 177.038 0.0157729 173.573C0.0157729 162.971 0.00530586 152.375 0.0157729 141.773C0.0314735 132.067 7.11768 124.905 16.8311 124.879C31.4798 124.837 46.1337 124.842 60.7823 124.879C67.6697 124.894 72.2176 130.92 70.2027 137.234C68.9624 141.119 65.3251 143.689 60.8713 143.705C53.089 143.736 45.3068 143.715 37.5193 143.715C36.8023 143.715 36.0853 143.715 35.0491 143.715C35.3788 144.516 35.6038 145.15 35.8969 145.752C47.0181 168.662 64.8069 183.755 89.3784 190.341C110.6 196.032 131.268 193.75 150.506 183.054C173.293 170.379 187.272 151.014 191.992 125.193C192.296 123.523 192.516 121.837 192.72 120.151C193.311 115.162 198.006 111.387 202.946 111.958C208.153 112.56 212.031 117.324 211.451 122.387C210.027 134.779 206.641 146.59 200.774 157.626C188.214 181.248 169.263 197.535 144.079 206.456C131.105 211.052 117.697 212.67 103.933 211.754C88.473 210.728 73.997 206.451 60.5678 198.823C42.9412 188.802 29.4492 174.735 20.2329 156.621C19.8927 155.95 19.5212 155.301 19.1653 154.642C19.0606 154.668 18.9559 154.699 18.8513 154.725H18.8565Z" fill="white"/>
</g>
<defs>
<clipPath id="clip0_383_32">
<rect width="212" height="212" fill="white"/>
</clipPath>
</defs>
</svg>
