<svg width="211" height="210" viewBox="0 0 211 210" fill="none" xmlns="http://www.w3.org/2000/svg">
<g clip-path="url(#clip0_383_87)">
<path d="M105.969 210C46.9876 209.951 0.24677 162.842 -1.39252e-05 105.123C-0.246798 47.6 46.9876 0.294767 105.13 2.99066e-05C163.124 -0.294707 210.852 46.9123 211 104.779C211.197 162.449 163.963 209.754 105.969 210ZM105.475 18.4702C57.4512 18.5193 18.6075 57.2281 18.6075 105.074C18.6075 152.575 57.6486 191.579 105.327 191.481C154.783 191.382 192.442 151.74 192.442 104.877C192.393 57.2772 153.253 18.4702 105.475 18.4702Z" fill="#0066B3"/>
<path d="M53.7495 99.6211C53.7495 96.0842 56.168 92.4983 59.5736 91.1228C63.226 89.6491 67.2239 90.5825 70.1853 93.6772C77.8356 101.586 85.4859 109.495 93.1362 117.404C94.7649 119.123 94.4195 118.877 95.8508 117.354C110.954 101.832 126.008 86.3088 141.111 70.7369C144.665 67.0526 150.044 66.7088 153.796 69.9018C157.793 73.2912 158.484 78.6947 155.178 82.7228C153.006 85.3755 150.489 87.7333 148.07 90.2386C132.622 106.154 117.173 122.021 101.774 137.888C99.2564 140.491 96.295 141.965 92.6426 141.032C90.9151 140.589 89.0889 139.705 87.9044 138.477C77.342 127.719 66.8784 116.912 56.3654 106.056C54.6379 104.288 53.8482 102.126 53.7495 99.6211Z" fill="#0066B3"/>
</g>
<defs>
<clipPath id="clip0_383_87">
<rect width="211" height="210" fill="white"/>
</clipPath>
</defs>
</svg>
