<svg width="281" height="357" viewBox="0 0 281 357" fill="none" xmlns="http://www.w3.org/2000/svg">
<g clip-path="url(#clip0_383_64)">
<path d="M76.5224 123.543C79.0423 121.461 81.0446 120.042 82.7676 118.336C91.3216 109.86 96.3 99.3775 99.1128 87.851C104.275 66.7089 103.117 46.0036 94.182 25.9602C93.1672 23.6877 91.88 21.538 90.7155 19.3337C87.3238 12.9051 89.3942 5.35041 95.4964 1.89042C101.524 -1.52862 108.961 0.327628 112.713 6.45597C119.483 17.5184 123.637 29.6045 125.776 42.3525C129.733 65.9583 127.669 88.9361 117.991 110.993C112.768 122.908 105.658 133.561 95.0673 141.334C90.4635 144.712 85.2058 147.319 79.9685 149.66C77.3874 150.813 76.4543 151.871 76.4611 154.71C76.5497 216.806 76.5292 278.901 76.5224 341.004C76.5224 342.478 76.5633 343.959 76.4543 345.426C75.9844 351.998 70.2977 357.102 63.6098 356.993C57.0309 356.884 51.5893 351.834 51.1534 345.385C51.0649 344.027 51.0989 342.662 51.0989 341.297C51.0989 279.201 51.0785 217.099 51.167 155.004C51.167 152.103 50.5405 150.704 47.5916 149.68C33.6846 144.849 23.7209 135.131 16.0114 122.942C6.98753 108.686 2.25426 92.9557 0.640176 76.229C-1.3621 55.51 1.25312 35.4803 9.71172 16.3651C11.1283 13.1576 12.7628 10.0252 14.5472 7.00875C18.4087 0.477766 25.9343 -1.63099 32.1454 1.92455C38.3293 5.46643 40.4338 13.1507 36.6676 19.6817C28.3043 34.17 25.1511 49.8935 25.5393 66.4018C25.8662 80.2896 28.7129 93.6382 35.5234 105.922C39.2487 112.637 43.9003 118.554 51.0989 123.352C51.0989 121.591 51.0989 120.438 51.0989 119.278C51.0989 97.0299 51.0853 74.7754 51.1194 52.5278C51.1194 50.6169 51.1466 48.6242 51.6574 46.8089C53.4145 40.5918 59.3396 36.968 65.8709 37.8825C71.9322 38.7287 76.4679 43.9631 76.4884 50.5418C76.5565 73.3628 76.5156 96.1769 76.5224 118.998C76.5224 120.199 76.5224 121.407 76.5224 123.55V123.543Z" fill="#9E9E9E"/>
<path d="M204.328 261.56C204.328 234.317 204.294 207.074 204.376 179.831C204.382 177.121 203.831 175.722 200.943 174.747C189.508 170.891 180.627 163.432 173.395 153.939C163.56 141.041 157.833 126.348 155.129 110.467C150.907 85.6671 153.352 61.6451 164.194 38.7355C168.559 29.5156 174.355 21.3127 181.894 14.3859C202.734 -4.74986 231.127 -4.82492 252.015 14.2699C264.274 25.4756 271.826 39.5749 276.172 55.3734C284.167 84.4524 282.498 112.897 269.109 140.167C266.187 146.111 262.258 151.673 258.131 156.887C251.307 165.499 242.548 171.716 232.033 175.183C230.323 175.743 229.54 176.494 229.731 178.282C229.826 179.182 229.745 180.097 229.745 181.005C229.745 234.583 229.745 288.162 229.724 341.741C229.724 343.767 229.738 345.876 229.22 347.807C227.531 354.045 221.586 357.723 215.082 356.816C208.898 355.949 204.376 350.837 204.348 344.3C204.28 324.55 204.321 304.8 204.314 285.043C204.314 277.209 204.314 269.381 204.314 261.547L204.328 261.56ZM255.488 85.0188C254.902 80.9787 254.269 73.2535 252.573 65.7739C249.774 53.4217 244.503 42.175 235.03 33.3578C223.833 22.9301 210.314 22.9437 199.077 33.3032C193.315 38.6194 189.038 45.0139 186.035 52.2001C177.018 73.7926 176.371 95.8082 183.256 118.056C186.668 129.077 192.151 138.932 201.386 146.227C211.336 154.089 222.628 154.041 232.639 146.282C238.394 141.819 242.61 136.086 245.974 129.705C252.737 116.868 255.168 103.015 255.488 85.012V85.0188Z" fill="#9E9E9E"/>
</g>
<defs>
<clipPath id="clip0_383_64">
<rect width="281" height="357" fill="white"/>
</clipPath>
</defs>
</svg>
