<svg width="305" height="274" viewBox="0 0 305 274" fill="none" xmlns="http://www.w3.org/2000/svg">
<g clip-path="url(#clip0_383_70)">
<path d="M152.484 0.008404C190.395 0.008404 228.307 -0.0240624 266.219 0.0246372C284.922 0.048987 299.893 11.9641 303.976 30.0966C304.642 33.0348 304.927 36.1191 304.935 39.1385C305 86.8154 305.025 134.5 304.968 182.177C304.951 201.178 292.2 216.486 273.513 220.025C270.545 220.585 267.446 220.642 264.413 220.658C247.035 220.715 229.649 220.755 212.271 220.634C208.318 220.609 205.375 221.835 202.634 224.749C188.249 240.073 173.692 255.235 159.209 270.461C157.583 272.174 155.948 273.749 153.378 273.968C150.353 274.228 148.15 272.961 146.149 270.843C137.797 261.98 129.381 253.165 120.98 244.342C114.613 237.654 108.148 231.039 101.886 224.254C99.4712 221.64 96.7307 220.642 93.2583 220.658C75.3679 220.731 57.4774 220.626 39.595 220.715C29.5276 220.764 20.5661 217.858 13.0033 211.178C4.36708 203.564 0.114025 193.873 0.0408365 182.421C-0.0404839 168.119 0.0164404 153.81 0.0164404 139.508C0.0164404 105.824 -0.00795573 72.1487 0.0245724 38.4648C0.0571005 20.1457 11.9055 5.13809 29.7065 1.03921C33.0325 0.276252 36.5455 0.0571036 39.9691 0.048987C77.474 -0.0159458 114.979 0.008404 152.484 0.008404ZM153.305 40.1125C149.426 40.0557 147.629 41.9063 146.304 44.536C141.164 54.763 135.951 64.9493 130.861 75.2005C129.43 78.0819 127.405 79.7377 124.152 80.1679C118.321 80.939 112.507 81.913 106.692 82.7977C100.976 83.6662 95.2588 84.5427 89.5339 85.4031C86.8096 85.8089 84.6953 87.0995 83.817 89.7779C82.955 92.424 83.7845 94.7615 85.7199 96.7257C86.4356 97.4481 87.1512 98.1624 87.8749 98.8766C95.4458 106.376 102.976 113.917 110.62 121.343C113.052 123.705 113.767 126.238 113.19 129.566C111.189 141.042 109.36 152.544 107.538 164.053C107.367 165.108 107.465 166.309 107.798 167.324C109.132 171.382 112.97 172.762 117.166 170.635C127.299 165.506 137.44 160.384 147.475 155.06C150.971 153.201 154.005 153.193 157.51 155.052C167.634 160.425 177.88 165.554 188.07 170.79C190.436 172.007 192.794 172.113 194.949 170.481C197.039 168.89 197.918 166.691 197.487 164.037C195.608 152.544 193.819 141.026 191.81 129.557C191.225 126.221 191.957 123.713 194.38 121.352C202.382 113.568 210.286 105.678 218.174 97.7809C219.232 96.7258 220.248 95.5083 220.882 94.1771C222.403 90.9954 220.712 87.1482 217.426 85.9469C216.572 85.6385 215.662 85.4518 214.767 85.3138C203.634 83.6093 192.51 81.8237 181.353 80.2978C177.734 79.8026 175.416 78.155 173.936 74.8921C172.432 71.5724 170.683 68.3664 169.041 65.1116C165.576 58.2369 162.104 51.3702 158.64 44.4955C157.379 41.9955 155.639 40.1774 153.305 40.1206V40.1125Z" fill="#0066B3"/>
</g>
<defs>
<clipPath id="clip0_383_70">
<rect width="305" height="274" fill="white"/>
</clipPath>
</defs>
</svg>
