<svg width="296" height="376" viewBox="0 0 296 376" fill="none" xmlns="http://www.w3.org/2000/svg">
<g clip-path="url(#clip0_383_27)">
<path d="M147.981 214.838C167.577 214.838 187.182 214.657 206.777 214.895C220.511 215.058 233.479 218.87 245.479 225.367C271.444 239.421 287.649 261.004 293.817 289.83C295.1 295.849 295.531 302.107 295.713 308.27C295.952 316.362 296.402 324.588 295.244 332.537C292.533 351.111 278.799 363.551 259.711 366.56C237.99 369.99 216.192 372.723 194.25 374.185C171.111 375.723 147.933 376.697 124.746 375.35C106.865 374.309 88.9554 373.229 71.151 371.385C57.2829 369.943 43.4243 367.822 29.7573 365.032C14.0025 361.812 1.14956 346.726 0.373789 330.665C-0.181702 319.276 -0.200857 307.735 0.96759 296.403C3.21829 274.772 12.9298 256.399 28.5219 241.275C47.0542 223.294 69.5803 214.828 95.2765 214.58C112.842 214.418 130.416 214.551 147.991 214.551C147.991 214.647 147.991 214.733 147.991 214.829L147.981 214.838ZM146.956 241.399V241.437C128.912 241.437 110.869 241.17 92.8343 241.504C64.5042 242.03 40.2638 259.715 30.6289 286.276C25.6103 300.12 26.4627 314.442 27.2481 328.687C27.5641 334.448 31.9601 338.404 37.6396 339.464C42.5624 340.382 47.5043 341.327 52.475 341.853C72.4152 343.974 92.3363 346.439 112.334 347.834C139.17 349.707 166.054 349.296 192.909 347.347C214.362 345.789 235.691 343.296 256.896 339.713C264.835 338.375 268.925 333.455 269.011 325.4C269.069 319.802 269.088 314.203 269.011 308.594C268.791 293.881 264.701 280.323 255.708 268.61C241.917 250.638 223.518 241.466 200.734 241.409C182.814 241.361 164.885 241.409 146.966 241.409L146.956 241.399Z" fill="#9E9E9E"/>
<path d="M53.854 93.5461C53.6912 42.144 96.1575 -0.0669228 147.933 -4.27046e-05C200.111 0.0668374 241.936 42.0484 242.003 94.406C242.07 145.569 199.622 187.704 148 187.742C95.7744 187.78 54.0168 145.999 53.854 93.5461ZM147.895 160.866C184.643 160.904 215.186 131.114 215.128 94.5589C215.071 55.5964 184.461 27.287 148.91 26.8189C110.686 26.3221 81.4466 56.7334 80.6516 91.3391C79.7322 131.333 111.022 160.933 147.895 160.875V160.866Z" fill="#9E9E9E"/>
</g>
<defs>
<clipPath id="clip0_383_27">
<rect width="296" height="376" fill="white"/>
</clipPath>
</defs>
</svg>
