<svg width="339" height="485" viewBox="0 0 339 485" fill="none" xmlns="http://www.w3.org/2000/svg">
<g clip-path="url(#clip0_383_103)">
<path d="M191.018 485C191.131 483.359 191.348 481.717 191.34 480.076C191.034 412.584 190.672 345.085 190.487 277.593C190.479 273.651 189.256 272.637 185.539 272.388C164.854 271.02 144.305 268.695 124.079 263.86C109.653 260.409 95.9836 255.171 83.3199 247.504C66.2392 237.158 65.4266 211.164 81.9924 200.496C89.6598 195.556 98.341 192.627 107.255 190.584C119.388 187.8 131.754 186.521 144.12 185.684C157.476 184.775 170.888 184.622 184.284 184.405C187.156 184.357 188.379 184.059 188.331 180.752C187.912 153.31 185.016 126.165 179.03 99.3667C178.25 95.8831 176.93 94.3143 172.948 95.1027C166.415 96.39 159.729 95.8107 153.099 95.7303C151.788 95.7142 150.46 95.4326 149.181 95.1108C145.56 94.2178 143.396 91.9088 143.203 88.1516C142.994 84.1451 145.536 82.1096 149.028 81.1844C155.376 79.503 161.893 80.0018 168.329 80.219C172.787 80.3719 173.334 79.1088 171.773 75.1827C165.811 60.13 156.583 47.3863 144.346 36.9838C128.198 23.2586 109.613 21.2071 89.692 26.7583C73.456 31.2797 62.6669 42.4466 54.3156 56.2039C46.1333 69.6878 38.6187 83.7831 35.6982 99.3426C33.4696 111.217 30.1709 122.867 29.0043 135.031C21.9724 208.251 22.962 281.632 23.9034 355.029C24.4344 396.647 24.6355 438.265 25.0539 479.891C25.07 481.581 24.1528 483.544 25.8745 485.008H0C1.16661 482.988 0.555144 480.792 0.56319 478.684C0.812602 384.008 1.04592 289.331 1.21488 194.655C1.25511 172.731 2.02748 150.76 6.21922 129.279C12.4545 97.3474 18.4404 65.0215 37.6613 37.5711C52.4169 16.4845 72.1527 2.83978 98.5421 0.426202C121.906 -1.71384 142.6 4.06266 160.911 19.3325C174.195 30.4028 182.602 44.5061 189.61 59.7438C193.971 69.2292 196.851 79.2777 200.037 89.2216C209.41 118.506 211.365 148.845 213.232 179.184C213.521 183.946 215.106 184.654 219.346 184.735C245.012 185.177 270.749 184.719 296.157 189.441C306.11 191.292 315.982 193.697 324.606 199.144C342.773 210.616 343.932 232.306 327.093 245.75C316.199 254.455 303.334 259.507 290.011 262.919C267.161 268.776 243.942 272.364 220.239 271.857C214.189 271.728 213.529 272.42 213.553 278.744C213.811 344.57 214.052 410.396 214.382 476.214C214.398 479.119 213.328 482.152 214.913 484.984H191.034L191.018 485ZM208.155 208.171C176.93 208.324 149.631 208.67 122.518 212.475C114.328 213.625 106.185 215.186 98.8881 219.386C94.455 221.936 94.2699 223.947 97.9307 227.367C102.138 231.301 107.336 233.537 112.686 235.227C133.532 241.808 154.861 245.927 176.697 247.544C201.236 249.362 225.686 248.727 250.072 245.758C262.969 244.189 275.689 241.51 288.192 237.962C295.522 235.887 302.618 233.047 308.95 228.718C313.801 225.396 313.793 220.585 308.966 218.742C299.81 215.242 290.397 212.459 280.613 211.509C255.221 209.032 229.765 207.889 208.155 208.171Z" fill="#050506"/>
<path d="M179.086 154.099C178.974 164.099 172.183 170.97 162.593 170.793C152.97 170.616 146.212 163.592 146.325 153.898C146.429 144.678 153.582 138.145 163.084 137.839C170.341 137.614 180.357 147.22 179.086 154.091V154.099Z" fill="#050506"/>
<path d="M106.443 170.696C97.8743 170.398 90.762 162.675 90.9631 153.898C91.1723 144.967 99.1374 137.501 107.907 138.016C115.534 138.467 124.932 147.486 124.256 154.429C123.54 161.822 116.942 171.163 106.435 170.688L106.443 170.696Z" fill="#050506"/>
<path d="M108.068 80.0985C112.912 80.3882 118.294 79.4147 122.936 83.0994C126.123 85.6337 126.243 89.8574 122.936 92.3434C120.764 93.9766 118.471 95.0546 115.744 95.3523C109.307 96.0603 102.855 96.2453 96.4183 95.6259C92.1863 95.2236 89.0324 93.0192 88.8554 88.5219C88.6704 84.0166 91.607 81.8443 95.839 80.887C99.7813 79.9859 103.732 80.179 108.076 80.0905L108.068 80.0985Z" fill="#050506"/>
<path d="M208.155 208.163C229.757 207.873 255.222 209.024 280.613 211.502C290.397 212.459 299.81 215.243 308.966 218.734C313.793 220.577 313.81 225.388 308.95 228.71C302.618 233.039 295.53 235.879 288.192 237.954C275.69 241.494 262.97 244.173 250.073 245.75C225.686 248.727 201.228 249.363 176.697 247.536C154.861 245.919 133.532 241.8 112.686 235.219C107.336 233.53 102.139 231.293 97.9308 227.359C94.2782 223.94 94.4632 221.928 98.8883 219.378C106.186 215.178 114.328 213.618 122.518 212.467C149.632 208.662 176.93 208.316 208.155 208.163Z" fill="#E6A44F"/>
</g>
<defs>
<clipPath id="clip0_383_103">
<rect width="339" height="485" fill="white"/>
</clipPath>
</defs>
</svg>
